<svg xmlns="http://www.w3.org/2000/svg" width="100" height="93.028" viewBox="0 0 100 93.028"><g fill="#010101"><path d="M27.882 76.26h40.174c1.853 0 3.355-1.505 3.355-3.355 0-1.853-1.503-3.354-3.355-3.354h-64.702c-1.854-.001-3.354 1.501-3.354 3.353 0 1.851 1.5 3.355 3.354 3.355h24.528zM99.233 19.722c-.559-.615-1.351-.965-2.183-.965h-22.69v-7.142l6.298-7.958-4.623-3.657-6.935 8.761c-.412.521-.636 1.166-.636 1.829v8.167h-22.691c-.832 0-1.624.35-2.181.965-.56.616-.832 1.439-.752 2.266l1.898 19.667c-2.868-.561-5.896-.868-9.033-.868-17.828 0-32.287 9.728-32.348 21.74h-.002v3.669h64.70299999999999v-3.669h-.002c-.043-8.331-7.015-15.562-17.232-19.211l-1.802-18.664h44.785l-6.042 62.48h-19.708v-7.519h-64.703v10.062000000000001c0 1.851 1.503 3.354 3.356 3.354h83.72999999999999c1.517 0 2.786-1.152 2.932-2.664l6.616-68.375c.077-.829-.193-1.652-.755-2.268z"/></g></svg>