<svg xmlns="http://www.w3.org/2000/svg" width="50" height="50" viewBox="0 0 50 50"><g fill-rule="evenodd" clip-rule="evenodd"><path d="M44.104 11.163c.779-.705.704-1.413-.15-2.119-4.348.819-31.488 11.599-32.084 13.682 10.708-3.868 21.489-7.696 32.234-11.563zM36.52 2.613c-.484-3.271-4.054.521-6.617 2.082-2.642 2.043-4.833 3.531-7.547 5.578-2.566 1.968-13.312 9.478-13.906 11.783l28.07-19.443zM18.671 26.926c2.752-1.076 2.381-4.869 7.548-2.936.483.781 0 1.45-.632 2.229 3.235-1.261 5.245-2.86 7.66 1.303 1.896-.631 5.726.93 6.023-.074-1.488-.816-3.05-1.486-5.354-1.486-.744-.707-1.523-1.376-2.305-2.083-1.19-.372-2.416-.335-3.641.111-1.268-.818-1.936-1.747-4.092-1.747-2.12 0-2.791.929-4.017 1.747-3.271 0-3.568.036-5.986 2.229l-4.721 1.303c.073.223.111.447.186.631l5.242-.779c.632-2.379 5.466-3.792 4.089-.448zM5.363 28.861c-.224 8.625 5.279 16.691 11.079 19.816h16.917c.036-.113 5.986-5.133 7.434-7.734 1.637-3.014 3.05-7.732 3.05-12.082h-38.48z"/></g></svg>