<svg xmlns="http://www.w3.org/2000/svg" width="100" height="100" viewBox="0 0 100 100"><path fill-rule="evenodd" clip-rule="evenodd" d="M28.922 42.703c-2.275-1.365-2.932-2.519-2.578-4.36.549-2.858 2.558-5.018 5.072-5.416 3.945-.624 7.396.687 10.634 2.776.705.455 1.394.936 2.068 1.436.817.606 1.682.645 2.599.3.112-.042.31-.094.313-.149.062-1.209 1.188-1.05 1.866-1.372.77-.365-.534-.984.252-1.208.453-.129 1.192-.091 1.228-.562.061-.8.526-.711 1.025-.807.742-.143.936-.629.645-1.232.683-.436 2.157.589 1.94-1.228.602.062 1.227.144 1.854.181.266.015.727.058.746-.212.07-.929.57-.354.85-.258 1.232.422 2.011 1.526 3.111 2.134.43.238.974 1.624 1.576.036.111-.293.628.097.806.377.546.858 1.649 1.263 1.889 2.373.076.357.433.289.702.297 6.202.189 12.039 1.823 17.68 4.337 2.765 1.232 5.763 1.879 8.483 3.255 1.466.741 2.884 1.55 4.235 2.478.43.295.861.517 1.416.572 1.371.137 1.742.733 1.252 2.037-.364.969-.852 1.891-1.288 2.833-.269.58-.553 1.151-.814 1.734-.914 2.034-.91 2.033.647 3.59.65.649 1.334 1.279 1.756 2.112.538 1.062.27 1.757-.835 2.179-.369.141-.771.297-1.153.289-2.766-.057-5.322.949-7.966 1.511-2.833.603-5.698.819-8.581.509-2.816-.305-5.578.272-8.365.422-.687.037-.757.588-.879 1.102-.541 2.285-1.512 4.358-2.995 6.197-.574.713-.996.71-1.63.07-1.011-1.021-1.762-3.852-1.273-5.146.12-.318.307-.504.671-.594.489-.119 1.019-.192 1.564-.688-1.865.144-3.524.68-5.465.687 1.349-1.163 2.599-2.176 3.285-3.667-1.51 1.55-3.149 2.92-5.028 3.987-3.568 2.025-8.423 1-10.747-2.262-1.079-1.515-.979-2.075.685-2.781 4.181-1.773 8.536-2.866 13.078-3.182.754-.053 1.332-.016 1.68.891.302.784 1.06 1.24 2.206 1.268-.988-.619-1.781-1.143-2.067-2.146-.139-.483-.604-.471-1.004-.451-4.982.256-9.822 1.192-14.415 3.182-1.508.652-1.721 1.301-1.202 2.748-3.524-.559-6.675-1.986-9.589-3.896-1.137-.745-2.098-.809-3.304-.35-2.406.914-4.88 1.499-7.496 1.168-3.173-.4-5.307-2.715-5.226-5.656.033-1.184.464-2.082 1.714-2.683-1.564-.756-3.119-.939-4.679-.979-1.903-.049-3.719.381-5.426 1.262-3.593 1.854-7.267 3.484-11.318 4.076-1.488.219-1.908-.076-1.865-1.617.074-2.678 1.101-5.046 2.549-7.244.548-.833 1.154-1.636 1.804-2.392 1.192-1.387 1.472-2.936 1.108-4.698-.601-2.907-.191-5.716 1.009-8.418.113-.255.228-.512.371-.751 1.173-1.956 2.171-2.083 3.721-.418 1.919 2.061 3.459 4.423 4.8 6.864 2.705 4.92 6.901 6.286 12.298 5.553zm68.463 17.065c.487-.023.889-.026 1.057-.398.153-.339-.124-.61-.342-.833-.585-.599-1.189-1.179-1.793-1.757-1.352-1.297-1.424-1.473-.663-3.209.591-1.348 1.296-2.644 1.929-3.973.229-.48.795-1.073.438-1.477-.369-.42-1.063.015-1.552.227-3.497 1.515-5.535 4.428-7.241 7.65-.166.314-.065.527.209.699 2.489 1.563 5.171 2.616 7.958 3.071zm-24.949 2.123c-.39-.535-.975-.623-1.526-.783-1.109-.319-2.982-2.67-2.914-3.82.075-1.266-.382-2.328-.95-3.393-.394-.736-.792-1.479-1.09-2.258-1.588-4.141-.213-7.583 3.786-9.554.424-.209.856-.401 1.286-.602-2.884.402-4.992 1.819-5.915 4.644-.938 2.874-.194 5.501 1.302 7.988.452.75 1.012 1.449 1.033 2.379.062 2.792 1.945 5.049 4.988 5.399zm1.675-13.618c-1.141 3.177-.656 6.19 1.386 8.853 2.751 3.587 6.649 4.134 10.813 3.777-9.315.126-13.406-5.573-12.199-12.63zm14.445 8.928c-.354.072-.614.153-.879.176-.883.073-1.693-.146-2.267-.84-.581-.703-.222-1.439.102-2.133.687-1.475 1.707-2.692 2.944-3.733.614-.516 1.235-1.022 1.854-1.533-2.446 1.311-4.413 3.098-5.549 5.659-.399.9-.413 1.802.467 2.486.972.754 2.293.74 3.328-.082zm-34.751 6.588c3.255-1.121 6.406-2.459 9.394-4.166-3.286 1.043-6.396 2.487-9.394 4.166zm8.657-4.839c-2.886.271-8.401 2.327-10.313 3.878 3.596-1.514 6.959-2.713 10.313-3.878zm-.212-.712c-2.482-.156-9.096 1.521-10.58 2.896 3.602-1.288 7.053-2.204 10.58-2.896zm.781 2.488c-2.509 1.324-5.019 2.649-7.528 3.974 2.795-.792 5.321-2.114 7.528-3.974zm-51.865-10.964c-2.511.425-4.998.95-7.403 1.81 2.56-.228 5.021-.859 7.403-1.81zm3.75-.633c-1.014-2.944-.147-5.299 2.4-7.357-2.908 1.164-3.991 4.736-2.4 7.357zm49.16 12.172c-1.833 1.291-3.742 2.438-5.557 3.729 2.183-.755 4.081-1.94 5.557-3.729zm-24.061-24.169c-2.277-1.457-4.753-2.425-7.478-2.681 2.54.736 5.018 1.644 7.478 2.681zm-29.149-6.044c1.088 2.443 2.605 4.54 4.157 6.612l.25-.171-4.407-6.441zm57.554 24.752c1.039 2.32 3.491 3.486 6.113 3.108-3.685-.805-3.962-.942-6.113-3.108zm-59.128-22.54c1.381 1.979 2.921 3.819 4.659 5.493-1.404-1.958-2.872-3.86-4.659-5.493zm2.111 17.986l-7.242 2.533.094.273c2.457-.72 4.882-1.533 7.148-2.806zm41.853-15.074c3.047-.191 6.079-.446 9.122-.522-3.067-.254-6.105.058-9.122.522zm-21.082-.837c2.199.796 4.4 1.584 6.587 2.414-2.041-1.24-4.215-2.105-6.587-2.414zm-27.178 13.442c2.183.007 4.346-.149 6.46-.723-2.185-.032-4.337.223-6.46.723zm29.55 7.121c-1.36-1.464-5.188-3.443-6.655-3.436 2.416.998 4.578 2.135 6.655 3.436zm-20.956-14.967c-1.412-1.651-2.902-3.222-4.635-4.549 1.314 1.75 2.902 3.223 4.635 4.549zm-1.442 5.828c-1.746-.29-3.491-.637-5.235 0h5.235zm13.563 10.515c2.153-.058 4.292-.191 6.244-1.258-2.059.536-4.158.86-6.244 1.258zm10.192-19.405c-1.628-1.09-4.529-1.935-5.798-1.706 2.062.389 3.893 1.124 5.798 1.706zm-1.733-4.191c1.94.521 3.773 1.347 5.663 2.011-1.739-1.09-3.575-1.909-5.663-2.011zm-.931 23.298c-1.958.471-3.934.859-5.905 1.271 2.049-.043 4.051-.31 5.905-1.271zm36.073 1.672c1.347 1.496 3.08 1.537 4.903 1.205-1.696-.116-3.371-.312-4.903-1.205zm-39.005-3.426l-5.269 1.045c1.809-.08 3.623-.133 5.269-1.045zm-2.473-15.698c1.652.095 3.251.537 5.11.828-1.702-.878-3.368-1.138-5.11-.828zm1.7-2.243c1.69.294 3.298.933 4.977 1.277-1.559-.82-3.192-1.349-4.977-1.277zm-20.52 2.388c.97 1.087 2.14 1.918 3.487 2.499-1.009-1.035-2.138-1.904-3.487-2.499zm24.228-.412c-1.61-.734-3.269-1.212-5.056-.979 1.729.107 3.37.657 5.056.979zm-20.685 4.599c-1.183-.787-2.435-1.418-3.821-1.742 1.151.858 2.445 1.393 3.821 1.742zm74.442 1.968c-.342.089-.634.511-.638.744-.01.473.482.519.887.507.356-.011.635-.195.618-.559-.02-.459-.354-.66-.867-.692zm-12.262 14.702c-1.283.078-2.566.113-3.85.028 1.285.594 2.568.508 3.85-.028zm-33.39-21.748c-1.495.208-2.881.704-4.118 1.595l4.118-1.595zm-8.084 19.496l-3.519.623c1.246.246 2.405-.042 3.519-.623zm-21.488-13.145c-1.309-.567-2.354-.84-3.46-.86 1 .459 2.016.857 3.46.86zm16.536-4.44c1.202.053 2.347.362 3.515.474-1.107-.745-2.315-.691-3.515-.474zm41.954 25.003l-1.563 3.088c.918-.812 1.382-1.846 1.563-3.088zM72.276 65.799c.067 1.464-.166 2.645-.344 3.826-.06.399.054 1.082-.752.92-.627-.127-1.438-1.159-1.212-1.593.722-1.389 1.247-2.84 1.546-4.376.054-.275.124-.604.491-.546.299.046.264.356.268.59.009.479.003.958.003 1.179z"/></svg>