<svg xmlns="http://www.w3.org/2000/svg" width="100" height="65.216" viewBox="0 0 100 65.216"><path fill="#010101" d="M33.844 14.937c19.944-4.053 33.402 8.756 39.239 13.621.537.448 1.088.926 1.644 1.428-.699-.641-1.399-1.259-2.092-1.835l-1.174-.991c-5.453-4.629-15.604-13.248-29.993-13.248-2.463 0-4.981.259-7.485.767"/><path fill="#010101" d="M86.922 65.216c-1.838 0-3.568-.263-3.643-.273-9.002-1.315-11.081-9.357-11.505-11.791-.25-1.438-.252-2.857-.252-2.916 0-2.467 8.514-3.362 14.236-3.362 5.724 0 14.237.896 14.237 3.362.002.032.045 1.244-.25 2.889l-.031.173c-1.284 6.669-4.825 10.616-10.521 11.734-.622.121-1.385.184-2.271.184zm-1.163-17.402c-8.729 0-13.296 1.576-13.296 2.421 0 .014.003 1.398.234 2.726.513 2.946 2.571 9.86 10.723 11.051.021.002 1.738.261 3.502.261.824 0 1.527-.055 2.092-.165 5.282-1.036 8.572-4.733 9.777-10.988l.031-.169c.273-1.529.235-2.687.234-2.697 0-.863-4.566-2.44-13.297-2.44zM85.761 53.116c-4.457 0-12.884-.479-12.884-2.289 0-1.812 8.427-2.291 12.884-2.291 4.456 0 12.885.479 12.885 2.291 0 1.811-8.429 2.289-12.885 2.289zm0-3.91c-7.879 0-12.078 1.042-12.216 1.624.139.576 4.341 1.616 12.216 1.616 7.876 0 12.076-1.041 12.216-1.623-.138-.577-4.336-1.617-12.216-1.617zM50.06 42.851c-5.454-4.63-15.604-13.248-29.993-13.248-2.463 0-4.982.258-7.485.767-2.331.477-4.429 1.776-6.091 3.283 1.686-1.408 3.734-2.57 5.951-3.023 19.944-4.053 33.403 8.754 39.24 13.621.536.446 1.087.926 1.644 1.428-.699-.642-1.4-1.26-2.092-1.837l-1.174-.991z"/><path fill="none" d="M71.417 21.487v-3.736h-3.134l1.566 3.736zM77.02 23.642l-1.168-3.011-2.021 1.317 1.01 2.73zM27.723 13.783c.417-.262.878-.249 1.374.037.183.105.412.076.562-.072.149-.148.182-.376.079-.561-.788-1.406.14-2.179.575-2.446 1.126-.691 2.889-.599 3.716.641.118.176.341.25.542.182.201-.07.329-.266.313-.478-.079-1.008.561-1.706 1.232-1.874.691-.173 1.307.192 1.649.974.092.211.325.325.549.264.223-.06.369-.274.343-.503-.214-1.88 1.214-3.289 2.66-3.516 1.335-.209 2.325.602 2.642 2.173.044.218.236.375.458.375h.005c.224-.002.416-.164.455-.383.113-.628.998-1.121 2.057-1.145.829-.013 1.774.268 1.97 1.129.051.222.258.374.479.364.227-.012.412-.185.439-.41.24-1.941 1.8-2.782 3.142-2.729 1.241.043 2.732.857 2.848 3.009.011.214.167.394.379.434.209.04.42-.07.509-.264.221-.477.822-.597 1.312-.549.659.063 1.401.445 1.546 1.051.048.194.211.337.41.356.2.015.387-.09.469-.272.248-.543.733-.971 1.365-1.202.684-.25 1.441-.231 2.026.047 1.184.563 1.688 1.75 1.59 3.734-.008.199.108.382.294.456.184.075.396.022.526-.127.712-.821 1.631-.972 2.46-.403.858.589 1.427 1.865.827 3.096-.315.381-.004.674.011.687.013.013.332.298.687-.05l.055-.066c.722-.625 1.719-.387 2.358.116.579.454 1.067 1.3.545 2.192-.127.216-.062.493.148.628.21.136.489.082.635-.122.988-1.394 2.526-1.079 3.544-.387 1.37.933 2.271 2.776 1.241 4.355-.107.165-.102.377.017.535.117.156.322.226.51.167.837-.251 1.487-.106 1.93.431.661.8.735 2.334.167 3.419-.089.17-.065.377.062.522.126.146.329.198.509.133.816-.292 1.504-.037 2.045.757.945 1.389 1.016 3.921.136 4.924-.155.178-.154.443.003.619.156.176.421.206.615.072.384-.269.826-.205 1.132-.104.66.217 1.289.812 1.494 1.413.347 1.014-.406 1.969-1.071 2.811l-.209.268c-.103.132-.126.312-.062.466.064.156.21.264.377.283.976.113 1.506.549 1.453 1.196-.043.513-.479 1.076-.992 1.042l-.199.034c-.473-1.011-1.573-2.52-3.005-4.228h1.847v-1.555h-3.191c-2.754-3.099-6.206-6.511-8.78-8.656-.359-.299-.747-.628-1.163-.983-1.604-1.36-3.604-3.058-5.99-4.785v-3.554l-2.2-1.012-.926 2.448c-3.662-2.307-8.033-4.438-13.09-5.647l.006-.001-2.597-3.604-2.524 2.75.004.001c-.651-.062-1.31-.111-1.981-.14l-1.076-2.733-1.984 1.057.744 1.659c-1.58.031-3.175.157-4.775.387l-3.982-.916-.49 1.988c-.883.367-1.73.838-2.532 1.37 1.082-.083 2.148-.127 3.195-.13.585-.234 1.19-.422 1.812-.55 2.503-.508 5.021-.767 7.485-.767 14.388 0 24.539 8.619 29.993 13.248l1.174.991c.692.577 1.393 1.194 2.092 1.836 4.577 4.123 9.594 9.794 11.064 12.262.2.337.332.61.391.816l.037.004c.135 0 .271-.04.387-.116.169-.112.281-.295.308-.496l-.002-.043c1.031-.008 1.795-.968 1.871-1.899.062-.743-.317-1.644-1.502-2.035.685-.891 1.424-2.039.968-3.366-.301-.885-1.14-1.688-2.087-1.999-.252-.083-.502-.128-.744-.132.554-1.57.21-3.741-.66-5.018-.573-.84-1.342-1.281-2.194-1.281h-.044c.348-1.275.134-2.737-.596-3.621-.498-.604-1.186-.902-1.975-.888.621-1.842-.417-3.755-1.918-4.778-1.098-.746-2.521-1.046-3.711-.402-.09-.753-.536-1.422-1.107-1.872-.673-.528-1.629-.845-2.527-.624.158-1.325-.526-2.553-1.461-3.195-.924-.633-1.976-.662-2.877-.129-.109-1.795-.809-2.979-2.12-3.604-.806-.383-1.833-.414-2.746-.08-.576.209-1.066.544-1.433.97-.485-.569-1.266-.889-1.947-.955-.575-.057-1.094.048-1.504.282-.488-1.936-2.075-2.863-3.604-2.915-1.49-.067-3.122.76-3.805 2.409-.529-.502-1.334-.797-2.277-.764-.841.019-1.771.296-2.366.856-.733-1.631-2.2-2.05-3.374-1.865-1.507.237-2.998 1.464-3.378 3.201-.536-.421-1.206-.575-1.904-.402-.782.196-1.537.834-1.825 1.773-1.23-.92-3.021-.881-4.239-.135-1.037.635-1.485 1.644-1.269 2.726-.465-.045-.918.062-1.333.324-.789.5-1.317 1.506-1.368 2.547-.292.063-.535.16-.745.274.563-.088 1.124-.169 1.68-.239.036-.731.405-1.463.927-1.794zM57.103 11.448l-2.521-1.641-2.101 1.985 3.503 1.296zM63.089 15.104v-4.045h-4.086l.772 4.045zM79.239 29.986l1.516-.56-1.516-3.737-2.219 1.052z"/><path fill="#010101" d="M31.509 13.988l.491-1.988 3.982.916c1.6-.23 3.195-.357 4.775-.387l-.745-1.659 1.985-1.057 1.074 2.734c.67.029 1.33.077 1.98.14l-.004-.001 2.524-2.75 2.597 3.604-.006.001c5.056 1.209 9.428 3.34 13.09 5.646l.926-2.448 2.199 1.012v3.554c2.387 1.728 4.388 3.425 5.991 4.786l1.163.982c2.575 2.145 6.026 5.556 8.78 8.656h3.191v1.558h-1.847c1.431 1.706 2.532 3.216 3.005 4.226l.199-.032c.513.032.949-.529.991-1.043.054-.647-.477-1.084-1.451-1.196-.168-.02-.312-.127-.378-.282-.064-.155-.042-.335.062-.468l.209-.268c.665-.841 1.418-1.795 1.071-2.81-.203-.602-.833-1.198-1.493-1.414-.306-.103-.748-.165-1.131.104-.194.134-.458.104-.615-.072-.156-.176-.158-.44-.003-.618.88-1.005.81-3.536-.136-4.925-.541-.794-1.229-1.05-2.045-.757-.18.065-.382.013-.51-.133-.126-.146-.149-.353-.06-.523.567-1.085.493-2.619-.167-3.419-.443-.538-1.093-.683-1.932-.431-.187.059-.392-.01-.509-.167-.118-.157-.124-.371-.017-.535 1.03-1.579.129-3.422-1.241-4.355-1.018-.691-2.556-1.006-3.545.387-.145.204-.424.258-.634.122s-.276-.412-.148-.628c.522-.892.033-1.738-.545-2.192-.639-.503-1.636-.742-2.358-.116l-.056.067c-.354.347-.674.062-.687.05-.014-.012-.324-.306-.01-.688.6-1.231.031-2.505-.827-3.096-.829-.569-1.748-.418-2.46.403-.132.15-.344.202-.526.127-.186-.074-.302-.257-.294-.456.1-1.984-.406-3.171-1.59-3.734-.585-.279-1.343-.297-2.026-.047-.633.231-1.117.658-1.365 1.202-.083.182-.269.287-.469.272-.199-.019-.362-.162-.41-.356-.145-.605-.887-.987-1.546-1.051-.489-.047-1.091.072-1.311.549-.09.195-.3.304-.512.264-.212-.041-.367-.22-.379-.435-.114-2.152-1.606-2.965-2.849-3.009-1.341-.052-2.902.788-3.141 2.729-.028.225-.213.398-.44.41-.221.011-.428-.142-.479-.363-.195-.862-1.142-1.143-1.969-1.13-1.06.024-1.944.516-2.057 1.145-.04.22-.23.381-.455.383h-.005c-.222 0-.414-.157-.458-.375-.315-1.572-1.306-2.383-2.641-2.173-1.446.227-2.874 1.636-2.66 3.516.026.23-.12.444-.343.503-.224.061-.457-.052-.549-.264-.342-.782-.957-1.147-1.648-.974-.672.168-1.312.866-1.232 1.874.017.213-.112.409-.313.479-.2.068-.423-.006-.541-.182-.828-1.24-2.59-1.333-3.716-.641-.436.267-1.362 1.039-.575 2.445.103.185.07.414-.08.561-.15.148-.38.177-.562.072-.496-.286-.958-.299-1.374-.037-.521.331-.891 1.064-.933 1.794.735-.091 1.465-.164 2.188-.22.806-.53 1.653-1 2.535-1.368zm47.73 11.701l1.517 3.736-1.517.56-2.219-3.245 2.219-1.051zm-3.387-5.058l1.168 3.011-2.179 1.036-1.011-2.729 2.022-1.318zm-4.435-2.88v3.736h-1.567l-1.566-3.736h3.133zm-8.328-6.692v4.045h-3.314l-.771-4.045h4.085zm-8.507-1.252l2.521 1.64-1.119 1.64-3.503-1.296 2.101-1.984zM25.45 16.708c-.357.055-.715.113-1.074.176l.699.214c.096-.154.219-.286.375-.39z"/><path d="M25.45 16.708c-.357.055-.715.113-1.074.176l.699.214c.096-.154.219-.286.375-.39zM60.523 38.753c-.498-.604-1.193-.91-1.976-.888.621-1.842-.417-3.756-1.917-4.778-1.098-.746-2.522-1.048-3.711-.403-.09-.752-.537-1.421-1.108-1.87-.674-.528-1.627-.845-2.527-.624.157-1.325-.526-2.553-1.461-3.194-.923-.633-1.976-.662-2.876-.13-.11-1.795-.809-2.979-2.12-3.603-.806-.383-1.833-.414-2.747-.081-.576.21-1.065.544-1.432.971-.486-.57-1.265-.89-1.947-.955-.576-.056-1.095.047-1.504.282-.489-1.937-2.076-2.863-3.604-2.917-1.491-.069-3.122.761-3.806 2.41-.529-.503-1.328-.797-2.278-.764-.841.019-1.771.296-2.366.855-.734-1.629-2.2-2.05-3.375-1.864-1.506.237-2.998 1.463-3.377 3.201-.536-.421-1.206-.576-1.904-.402-.772.193-1.518.817-1.813 1.739-.894-.746-2.058-.981-3.136-.576-1.361.511-2.155 1.849-2.112 3.486-.946.062-1.743.395-2.28.958-.42.441-.655.997-.691 1.628-.998.216-1.476.795-1.704 1.274-.439.919-.257 2.129.176 3.023-1.013 1.439-1.623 2.847-1.66 3.924-.029.82.284 1.438.863 1.761-.173-.3-.202-.722-.109-1.226.309-1.679 2-4.272 4.472-6.337 1.662-1.508 3.76-2.807 6.091-3.284 2.503-.509 5.021-.767 7.485-.767 14.388 0 24.539 8.618 29.992 13.248l1.175.992c.69.576 1.392 1.195 2.092 1.835 4.577 4.124 9.594 9.796 11.064 12.263.199.337.332.609.39.815l.036.005c.138 0 .272-.04.388-.116.17-.113.282-.295.308-.497v-.041c1.03-.01 1.793-.969 1.871-1.901.062-.743-.317-1.642-1.502-2.034.683-.89 1.423-2.038.968-3.367-.302-.885-1.141-1.688-2.087-1.999-.252-.084-.504-.126-.745-.133.555-1.57.209-3.74-.66-5.018-.583-.854-1.354-1.291-2.237-1.28.342-1.275.128-2.737-.599-3.621zm2.06 5.427c.946 1.389 1.017 3.92.137 4.925-.155.177-.154.442.002.618.159.177.422.206.616.072.383-.267.825-.205 1.131-.104.66.216 1.29.812 1.495 1.413.346 1.016-.406 1.969-1.072 2.812l-.21.266c-.102.134-.125.312-.062.469.067.154.21.263.379.281.976.112 1.506.549 1.452 1.196-.042.514-.482 1.075-.991 1.044l-.201.029c-.473-1.01-1.572-2.518-3.003-4.223h1.846v-1.557h-3.191c-2.754-3.101-6.206-6.511-8.779-8.656l-1.164-.982c-1.603-1.36-3.604-3.058-5.989-4.785v-3.554l-2.201-1.013-.926 2.447c-3.662-2.306-8.033-4.438-13.09-5.646l.007-.001-2.598-3.604-2.524 2.75.004.001c-.65-.063-1.31-.111-1.98-.141l-1.074-2.734-1.985 1.057.744 1.658c-1.58.031-3.175.157-4.775.388l-3.982-.916-.49 1.989c-2.596 1.079-4.914 3.001-6.526 4.984-.186-.585-.231-1.249.01-1.755.226-.472.69-.744 1.379-.812.254-.024.44-.249.419-.502-.045-.545.099-.997.43-1.344.44-.46 1.211-.7 2.091-.677.141.012.27-.051.362-.152.092-.101.135-.238.117-.374-.226-1.728.613-2.689 1.473-3.012 1.003-.377 2.089.03 2.762 1.039.118.176.341.25.541.182.201-.07.33-.266.313-.478-.079-1.008.56-1.705 1.232-1.874.69-.174 1.306.191 1.648.974.093.211.324.324.549.264.223-.061.369-.274.343-.504-.213-1.88 1.215-3.289 2.66-3.516 1.335-.209 2.326.602 2.641 2.173.044.218.236.375.458.375h.004c.224-.002.416-.164.455-.384.114-.628.997-1.12 2.057-1.144.831-.024 1.774.269 1.97 1.13.051.222.258.381.479.362.227-.01.412-.184.44-.409.239-1.942 1.8-2.787 3.141-2.729 1.243.042 2.734.856 2.848 3.009.011.214.168.394.379.434.211.04.423-.069.512-.264.219-.477.821-.597 1.311-.549.658.063 1.4.445 1.545 1.05.047.194.211.337.41.355.2.018.387-.09.469-.271.248-.543.732-.971 1.365-1.202.684-.25 1.441-.231 2.025.047 1.184.563 1.689 1.75 1.591 3.734-.009.199.107.383.293.457.184.073.396.022.527-.127.711-.821 1.63-.973 2.458-.403.86.589 1.427 1.864.828 3.096-.315.381-.004.674.009.687.013.012.334.297.687-.05l.057-.066c.721-.625 1.719-.386 2.359.116.576.453 1.065 1.299.543 2.192-.127.215-.061.492.148.627.211.136.491.083.635-.121.988-1.394 2.528-1.078 3.544-.388 1.37.933 2.272 2.777 1.241 4.355-.107.165-.1.378.017.536.119.155.322.225.51.166.838-.251 1.486-.107 1.932.432.66.8.735 2.333.166 3.419-.09.17-.064.378.061.523.127.145.331.196.511.132.818-.292 1.504-.035 2.045.758zM28.977 15.357c1.083-.083 2.148-.126 3.196-.13.585-.233 1.189-.422 1.811-.55 2.503-.508 5.021-.767 7.485-.767 14.388 0 24.539 8.619 29.993 13.248l1.174.991c.692.576 1.393 1.194 2.092 1.835 4.577 4.123 9.594 9.795 11.064 12.264.2.335.332.608.39.813l.037.006c.136 0 .271-.04.389-.118.168-.112.281-.292.307-.495l-.002-.042c1.032-.009 1.795-.968 1.871-1.899.062-.744-.317-1.643-1.502-2.035.684-.89 1.424-2.038.968-3.366-.301-.886-1.14-1.689-2.087-2-.252-.083-.502-.126-.744-.131.555-1.57.21-3.741-.66-5.018-.573-.84-1.342-1.281-2.194-1.281h-.044c.348-1.275.133-2.737-.596-3.621-.498-.604-1.186-.902-1.975-.888.62-1.842-.417-3.755-1.918-4.777-1.098-.747-2.521-1.047-3.711-.403-.089-.753-.536-1.422-1.108-1.872-.673-.528-1.627-.845-2.525-.624.156-1.325-.528-2.553-1.462-3.195-.925-.633-1.976-.662-2.876-.13-.11-1.795-.81-2.978-2.12-3.604-.807-.383-1.834-.414-2.747-.08-.577.209-1.066.544-1.433.97-.485-.569-1.266-.889-1.947-.955-.576-.057-1.094.048-1.504.282-.488-1.936-2.075-2.863-3.604-2.915-1.491-.067-3.123.76-3.805 2.409-.53-.502-1.334-.797-2.278-.764-.84.019-1.771.296-2.366.856-.734-1.63-2.2-2.05-3.374-1.864-1.506.236-2.998 1.463-3.378 3.2-.536-.421-1.206-.575-1.904-.402-.782.196-1.537.833-1.825 1.773-1.23-.921-3.021-.881-4.239-.135-1.037.636-1.485 1.645-1.269 2.726-.465-.045-.918.062-1.333.324-.79.5-1.317 1.507-1.368 2.548-.292.063-.535.16-.745.274.562-.088 1.124-.169 1.679-.239.735-.09 1.465-.162 2.187-.219zM48.447 37.18h1.57v-3.736h-3.136zM38.374 30.796h3.314v-4.045h-4.085zM54.452 36.323l-2.023 1.318 1.012 2.728 2.179-1.035zM31.079 27.484l3.503 1.296 1.119-1.641-2.521-1.64zM64.016 48.672c.554-1.57.209-3.741-.66-5.018-.583-.855-1.353-1.292-2.237-1.281.347-1.274.132-2.736-.596-3.62-.498-.604-1.193-.91-1.976-.888.621-1.842-.417-3.756-1.917-4.778-1.098-.746-2.522-1.048-3.711-.403-.09-.752-.537-1.421-1.108-1.87-.674-.528-1.627-.845-2.527-.624.158-1.325-.526-2.553-1.461-3.194-.923-.633-1.976-.662-2.876-.13-.11-1.795-.809-2.979-2.12-3.603-.806-.383-1.833-.414-2.747-.081-.576.21-1.065.544-1.432.971-.486-.57-1.265-.89-1.947-.955-.576-.056-1.095.047-1.504.282-.489-1.937-2.076-2.863-3.604-2.917-1.491-.069-3.122.761-3.806 2.41-.529-.503-1.328-.797-2.278-.764-.841.019-1.771.296-2.366.855-.734-1.629-2.2-2.05-3.375-1.864-1.506.237-2.998 1.463-3.377 3.201-.536-.421-1.206-.576-1.904-.402-.772.193-1.518.817-1.813 1.739-.894-.746-2.058-.981-3.136-.576-1.361.511-2.155 1.849-2.112 3.486-.946.062-1.743.395-2.28.958-.42.441-.655.997-.691 1.628-.998.216-1.476.795-1.704 1.274-.439.919-.257 2.129.176 3.023-1.013 1.439-1.623 2.847-1.66 3.924-.029.82.284 1.438.863 1.761-.173-.3-.202-.722-.109-1.226.309-1.679 2-4.272 4.472-6.337 1.662-1.508 3.76-2.807 6.091-3.284 2.503-.509 5.021-.767 7.485-.767 14.388 0 24.539 8.618 29.992 13.248l1.175.992c.69.576 1.392 1.195 2.092 1.835 4.577 4.124 9.594 9.796 11.064 12.263.199.337.332.609.39.815l.036.005c.138 0 .272-.04.388-.116.17-.113.282-.295.308-.497v-.041c1.03-.01 1.793-.969 1.871-1.901.062-.743-.317-1.642-1.502-2.034.683-.89 1.423-2.038.968-3.367-.302-.885-1.141-1.688-2.087-1.999-.257-.084-.506-.127-.748-.133zm1.948 2.432c.346 1.016-.406 1.969-1.072 2.812l-.21.266c-.102.134-.125.312-.062.469.067.154.21.263.379.281.976.112 1.506.549 1.452 1.196-.042.514-.482 1.075-.991 1.044l-.201.029c-.473-1.01-1.572-2.518-3.003-4.223h1.846v-1.557h-3.191c-2.754-3.101-6.206-6.511-8.779-8.656l-1.164-.982c-1.603-1.36-3.604-3.058-5.989-4.785v-3.554l-2.201-1.013-.926 2.447c-3.662-2.306-8.033-4.438-13.09-5.646l.007-.001-2.598-3.604-2.524 2.75.004.001c-.65-.063-1.31-.111-1.98-.141l-1.074-2.734-1.985 1.057.744 1.658c-1.58.031-3.175.157-4.775.388l-3.982-.916-.49 1.989c-2.596 1.079-4.914 3.001-6.526 4.984-.186-.585-.231-1.249.01-1.755.226-.472.69-.744 1.379-.812.254-.024.44-.249.419-.502-.045-.545.099-.997.43-1.344.44-.46 1.211-.7 2.091-.677.141.012.27-.051.362-.152.092-.101.135-.238.117-.374-.226-1.728.613-2.689 1.473-3.012 1.003-.377 2.089.03 2.762 1.039.118.176.341.25.541.182.201-.07.33-.266.313-.478-.079-1.008.56-1.705 1.232-1.874.69-.174 1.306.191 1.648.974.093.211.324.324.549.264.223-.061.369-.274.343-.504-.213-1.88 1.215-3.289 2.66-3.516 1.335-.209 2.326.602 2.641 2.173.044.218.236.375.458.375h.004c.224-.002.416-.164.455-.384.114-.628.997-1.12 2.057-1.144.831-.024 1.774.269 1.97 1.13.051.222.258.381.479.362.227-.01.412-.184.44-.409.239-1.942 1.8-2.787 3.141-2.729 1.243.042 2.734.856 2.848 3.009.011.214.168.394.379.434.211.04.423-.069.512-.264.219-.477.821-.597 1.311-.549.658.063 1.4.445 1.545 1.05.047.194.211.337.41.355.2.018.387-.09.469-.271.248-.543.732-.971 1.365-1.202.684-.25 1.441-.231 2.025.047 1.184.563 1.689 1.75 1.591 3.734-.009.199.107.383.293.457.184.073.396.022.527-.127.711-.821 1.63-.973 2.458-.403.86.589 1.427 1.864.828 3.096-.315.381-.004.674.009.687.013.012.334.297.687-.05l.057-.066c.721-.625 1.719-.386 2.359.116.576.453 1.065 1.299.543 2.192-.127.215-.061.492.148.627.211.136.491.083.635-.121.988-1.394 2.528-1.078 3.544-.388 1.37.933 2.272 2.777 1.241 4.355-.107.165-.1.378.017.536.119.155.322.225.51.166.838-.251 1.486-.107 1.932.432.66.8.735 2.333.166 3.419-.09.17-.064.378.061.523.127.145.331.196.511.132.816-.292 1.503-.036 2.044.757.946 1.39 1.017 3.92.137 4.925-.155.178-.154.442.002.618.159.177.422.206.616.072.383-.267.825-.204 1.131-.104.661.218 1.291.813 1.496 1.414z" fill="none"/><path fill="#010101" d="M61.717 32.394c-3.797-6.072-12.646-16.235-29.379-16.235-.697 0-1.403.018-2.116.055-.887.044-1.788.12-2.697.221-.641.071-1.289.158-1.94.256-.031-.018-.194-.024-.672.018l-.537.176-.776.14-.289.072c-10.33 2.487-19.675 10.673-22.775 19.997-.624 1.474-.708 3.112-.224 4.114.219.452.538.738.948.851l61.618 16.863c.004 0 .79.163 1.739.163 1.21 0 2.749-.261 3.213-1.497.676-1.802 1.176-10.099-2.778-19.134-.879-2.006-1.972-4.046-3.335-6.06zm5.131 18.41c.455 1.329-.284 2.478-.969 3.366 1.185.393 1.564 1.292 1.503 2.035-.076.932-.84 1.892-1.871 1.901v.04c-.025.203-.138.384-.308.497-.115.077-.25.117-.388.117l-.036-.006c-.058-.205-.189-.479-.39-.814-1.471-2.468-6.486-8.139-11.064-12.263-.699-.641-1.4-1.259-2.092-1.836l-1.175-.991c-5.453-4.63-15.604-13.248-29.992-13.248-2.463 0-4.982.258-7.485.767-2.331.477-4.429 1.776-6.091 3.283-2.473 2.065-4.164 4.659-4.472 6.338-.093.504-.064.926.109 1.225-.58-.322-.893-.94-.864-1.761.038-1.076.647-2.484 1.66-3.923-.434-.895-.615-2.105-.176-3.024.228-.478.707-1.057 1.705-1.273.036-.631.271-1.188.691-1.628.537-.563 1.334-.895 2.279-.958-.043-1.638.751-2.977 2.112-3.486 1.079-.405 2.243-.17 3.136.576.295-.922 1.041-1.546 1.813-1.739.698-.174 1.368-.019 1.904.402.38-1.738 1.873-2.964 3.378-3.201 1.173-.187 2.639.234 3.374 1.864.595-.559 1.525-.836 2.366-.855.95-.033 1.748.26 2.278.763.684-1.649 2.314-2.479 3.805-2.409 1.529.053 3.116.979 3.604 2.917.41-.235.928-.339 1.504-.282.682.066 1.461.385 1.947.955.367-.427.856-.76 1.432-.971.914-.333 1.941-.303 2.747.081 1.312.625 2.01 1.808 2.12 3.603.901-.532 1.953-.503 2.876.13.934.641 1.619 1.87 1.461 3.194.899-.221 1.853.096 2.527.624.572.449 1.019 1.119 1.108 1.871 1.188-.645 2.612-.343 3.71.402 1.502 1.022 2.539 2.938 1.918 4.779.782-.023 1.478.283 1.976.888.729.883.942 2.345.595 3.619.885-.01 1.655.427 2.238 1.282.869 1.276 1.214 3.446.66 5.018.242.005.492.049.745.132.952.31 1.79 1.113 2.092 1.999z"/><path fill="none" d="M38.374 30.796h3.314v-4.045h-4.085zM31.079 27.484l3.503 1.296 1.119-1.641-2.521-1.64zM48.447 37.18h1.57v-3.736h-3.136zM54.452 36.323l-2.023 1.318 1.012 2.728 2.179-1.035zM55.62 42.433l2.218 3.245 1.517-.561-1.517-3.734z"/><path fill="#010101" d="M65 54.932c-.169-.019-.312-.127-.379-.281-.063-.157-.04-.335.062-.469l.21-.266c.666-.842 1.418-1.796 1.072-2.812-.205-.602-.835-1.197-1.495-1.413-.306-.102-.748-.163-1.131.104-.194.134-.457.104-.616-.072-.156-.176-.157-.441-.002-.618.88-1.005.81-3.537-.137-4.925-.541-.794-1.228-1.05-2.044-.757-.18.063-.384.013-.511-.133-.125-.146-.15-.354-.061-.523.569-1.085.494-2.619-.166-3.418-.445-.539-1.094-.683-1.932-.433-.188.06-.391-.011-.51-.166-.116-.158-.124-.371-.017-.535 1.03-1.579.129-3.423-1.241-4.355-1.016-.691-2.554-1.007-3.544.387-.145.205-.425.258-.635.122-.208-.136-.275-.413-.149-.628.523-.892.034-1.739-.542-2.191-.64-.502-1.638-.742-2.359-.117l-.057.067c-.353.348-.673.062-.687.05s-.324-.306-.009-.687c.599-1.232.032-2.506-.828-3.096-.828-.569-1.748-.418-2.458.403-.131.15-.344.201-.527.127-.185-.074-.302-.257-.293-.457.098-1.984-.407-3.17-1.591-3.734-.585-.278-1.342-.296-2.025-.047-.633.231-1.118.659-1.365 1.202-.082.182-.269.289-.469.272-.199-.019-.363-.162-.41-.356-.146-.605-.887-.987-1.545-1.051-.49-.047-1.092.072-1.311.549-.089.195-.301.303-.512.264-.211-.04-.367-.219-.379-.434-.114-2.152-1.605-2.966-2.848-3.008-1.34-.059-2.901.787-3.141 2.729-.027.225-.213.398-.44.409-.221.019-.429-.141-.479-.362-.195-.861-1.139-1.154-1.97-1.13-1.06.024-1.943.516-2.057 1.144-.04.221-.23.382-.455.384h-.004c-.222 0-.414-.157-.458-.375-.315-1.571-1.306-2.382-2.641-2.173-1.446.227-2.874 1.636-2.66 3.516.026.23-.12.443-.343.504-.225.061-.456-.052-.549-.264-.342-.783-.958-1.147-1.648-.974-.672.167-1.312.865-1.232 1.874.017.212-.112.408-.313.478-.2.069-.423-.006-.541-.182-.673-1.009-1.759-1.417-2.762-1.039-.86.323-1.698 1.284-1.473 3.012.018.136-.025.272-.117.374-.092.102-.222.165-.362.152-.88-.023-1.651.216-2.091.677-.331.347-.476.798-.43 1.343.021.254-.166.479-.419.502-.69.067-1.154.342-1.379.813-.241.505-.195 1.169-.01 1.755 1.612-1.982 3.93-3.905 6.526-4.985l.49-1.988 3.982.916c1.6-.231 3.195-.357 4.775-.388l-.744-1.658 1.985-1.057 1.074 2.734c.67.029 1.33.078 1.98.141l-.004-.001 2.524-2.75 2.598 3.604-.007.001c5.057 1.208 9.428 3.34 13.09 5.646l.926-2.447 2.201 1.012v3.555c2.386 1.728 4.386 3.425 5.989 4.785l1.164.982c2.573 2.146 6.025 5.556 8.779 8.656h3.191v1.557h-1.846c1.431 1.705 2.53 3.213 3.003 4.223l.201-.029c.509.031.949-.53.991-1.044.052-.649-.478-1.085-1.453-1.197zm-30.418-26.152l-3.502-1.296 2.101-1.985 2.521 1.64-1.12 1.641zm7.106 2.016h-3.314l-.771-4.044h4.085v4.044zm8.329 6.384h-1.569l-1.567-3.735h3.136v3.735zm2.412.461l2.022-1.317 1.168 3.01-2.18 1.036-1.01-2.729zm5.409 8.037l-2.219-3.245 2.219-1.05 1.517 3.735-1.517.56zM83.505 16.44c-4.864-7.783-16.539-19.782-38.591-15.566-8.562 1.97-16.564 7.784-20.99 15.144.397-.071.792-.139 1.186-.201.209-.114.453-.21.745-.274.051-1.042.578-2.048 1.368-2.548.414-.262.868-.368 1.333-.324-.216-1.081.232-2.09 1.269-2.726 1.219-.746 3.009-.786 4.239.135.288-.939 1.042-1.578 1.825-1.773.698-.173 1.368-.019 1.904.402.38-1.737 1.872-2.963 3.378-3.2 1.174-.186 2.64.234 3.374 1.864.595-.56 1.525-.837 2.366-.856.944-.034 1.749.261 2.278.764.682-1.649 2.313-2.477 3.805-2.409 1.529.052 3.116.979 3.604 2.915.41-.234.93-.338 1.504-.282.682.066 1.462.386 1.947.955.366-.426.855-.76 1.433-.97.913-.334 1.94-.304 2.747.08 1.311.625 2.01 1.808 2.12 3.604.9-.532 1.951-.503 2.876.13.934.642 1.618 1.87 1.462 3.195.898-.222 1.852.095 2.525.624.572.449 1.02 1.119 1.108 1.872 1.189-.645 2.614-.344 3.711.403 1.501 1.022 2.538 2.936 1.918 4.777.789-.014 1.477.284 1.975.888.729.883.943 2.345.596 3.621h.044c.853 0 1.621.44 2.194 1.281.87 1.277 1.215 3.448.66 5.018.242.005.492.049.744.131.947.311 1.786 1.114 2.087 2 .456 1.328-.284 2.477-.968 3.366 1.185.393 1.563 1.291 1.502 2.035-.076.932-.839 1.891-1.871 1.899l.002.042c-.025.203-.138.383-.307.495-.117.078-.253.118-.389.118l-.037-.006c-.058-.204-.189-.478-.39-.813-1.471-2.469-6.486-8.141-11.064-12.264-.699-.641-1.399-1.259-2.092-1.835l-1.174-.991c-5.453-4.629-15.604-13.248-29.993-13.248-2.463 0-4.981.259-7.485.767-.622.127-1.362.467-1.948.701l.166-.003c15.556-.273 26.409 10.285 30.299 16.507 1.556 2.303 2.77 4.624 3.715 6.888l17.94 4.91s4.539.973 5.512-1.622c.973-2.595 1.296-14.594-6.162-25.62zM98.189 53.786c-.121-.034-.243.035-.276.156l-.015.049c-1.974 1.012-2.913.288-4.308.439-.578.062-.944.491-1.491.477-.643-.018-1.168-.497-1.808-.229-.538.225-.498.993-1.152.905-.436-.057-.795-.789-1.089-1.057-.492-.448-.906-.587-1.53-.347-.854.328-.476.856-.976 1.324-.368.346-.799.054-1.322-.139-.544-.199-1.378-.046-1.224.662-.168.069-.484.103-.664.077-.157-.787-.347-1.403-1.241-1.444-.953-.042-.789.494-1.38 1.005-.691-.157-.853-.596-1.456-.851-.604-.256-.907.156-1.437.323-.712.225-.871-.007-1.496-.307-.38-.184-1.104-.613-1.343-.192-.06-.062-.153-.088-.238-.057-.115.043-.176.172-.134.287 1.227 3.349 3.939 7.532 9.897 8.45.097.016 1.71.271 3.409.271.732 0 1.478-.048 2.125-.182 5.864-1.212 8.296-5.751 9.304-9.346.033-.117-.036-.241-.155-.274zm-4.003 6.565l-.394.341.394-.341z"/></svg>