<svg xmlns="http://www.w3.org/2000/svg" width="100" height="100" viewBox="0 0 100 100"><path d="M50 2.5c-26.191 0-47.5 21.308-47.5 47.5 0 26.191 21.309 47.5 47.5 47.5s47.5-21.309 47.5-47.5c0-26.192-21.309-47.5-47.5-47.5zm0 92.814c-24.986 0-45.314-20.328-45.314-45.314s20.328-45.314 45.314-45.314 45.314 20.328 45.314 45.314-20.328 45.314-45.314 45.314zm-.547 1.551v-.014l.547.014h-.547zM49.453 96.865h.547l-.547-.014v.014zM49.453 93.464v-42.146l-29.838 29.841c7.739 7.502 18.241 12.161 29.838 12.305zm-3.643-27.741c.626 0 1.134.508 1.134 1.133s-.508 1.133-1.134 1.133c-.623 0-1.131-.508-1.131-1.133s.508-1.133 1.131-1.133zm-1.131 21.161c0 .735-.598 1.333-1.334 1.333-.734 0-1.332-.598-1.332-1.333 0-.737.598-1.334 1.332-1.334.736 0 1.334.596 1.334 1.334zm-1.622-9.057c0 .976-.792 1.769-1.768 1.769s-1.768-.793-1.768-1.769c0-.978.792-1.769 1.768-1.769s1.768.794 1.768 1.769zm-3.536-10.972c.833 0 1.507.674 1.507 1.506s-.674 1.507-1.507 1.507c-.832 0-1.507-.675-1.507-1.507.001-.832.675-1.506 1.507-1.506zm-8.164 11.499c1.124 0 2.038.912 2.038 2.039 0 1.125-.914 2.037-2.038 2.037-1.125 0-2.039-.912-2.039-2.037 0-1.127.914-2.039 2.039-2.039zM6.345 50.547c.194 11.618 4.92 22.13 12.493 29.844l29.843-29.844h-42.336zm7.381 7.198c-.976 0-1.768-.792-1.768-1.769s.792-1.768 1.768-1.768 1.768.791 1.768 1.768c-.001.977-.793 1.769-1.768 1.769zm6.621 14.332c-1.44 0-2.61-1.169-2.61-2.611s1.17-2.61 2.61-2.61c1.443 0 2.613 1.168 2.613 2.61s-1.17 2.611-2.613 2.611zm6.043-10.731c-1.125 0-2.038-.914-2.038-2.039 0-1.127.913-2.039 2.038-2.039 1.127 0 2.041.912 2.041 2.039 0 1.125-.914 2.039-2.041 2.039zm11.798-6.078c-.736 0-1.334-.599-1.334-1.334 0-.736.598-1.334 1.334-1.334s1.334.598 1.334 1.334c-.001.735-.598 1.334-1.334 1.334zM18.838 19.609c-7.573 7.714-12.299 18.226-12.493 29.844h42.336l-29.843-29.844zm-5.112 26.723c-1.039 0-1.883-.843-1.883-1.882s.844-1.882 1.883-1.882c1.04 0 1.883.843 1.883 1.882s-.843 1.882-1.883 1.882zm3.697-13.443c0-1.539 1.248-2.789 2.79-2.789 1.539 0 2.787 1.25 2.787 2.789 0 1.541-1.248 2.79-2.787 2.79-1.542 0-2.79-1.249-2.79-2.79zm5.797 11.786c-.625 0-1.131-.508-1.131-1.132 0-.625.506-1.132 1.131-1.132.626 0 1.132.507 1.132 1.132 0 .624-.506 1.132-1.132 1.132zm8.543.501c-.901 0-1.633-.732-1.633-1.634 0-.9.731-1.632 1.633-1.632.9 0 1.633.731 1.633 1.632s-.733 1.634-1.633 1.634z"/></svg>