<svg xmlns="http://www.w3.org/2000/svg" width="100" height="100" viewBox="0 0 100 100"><path d="M60.7 20.2c.03-.612.329-1.123.628-1.667l-27.939 9.649c.597.275 1.208.528 1.808.825l25.503-8.807zM100 44.18l-.002-.043-.003-.04-.007-.041-.008-.041-.012-.039-.013-.04-.016-.037-.018-.039-.021-.035-.022-.036-.024-.032-.027-.033-.008-.01-14.708-16.113c-.166.584-.23 1.168-.256 1.752l13.263 14.528-79.558 28.912-11.785-22.465-5.109-9.74 6.219-2.147c-.043-.473-.093-.938-.104-1.414l-7.315 2.526-.021.01-.09.042-.031.018-.105.081-.015.016-.072.085-.022.035-.046.086-.012.023-.007.021-.012.023-.029.098v.002l-.004.102.001.012.07 6.99c.001.105.027.21.075.305l17.475 34.263.001.002.046.077.016.021.04.049.025.025.039.036.029.023.021.018.017.01.052.03.036.019.058.022.035.013.071.017.025.005.1.008.106-.01.027-.005.027-.005.039-.013.037-.01 8.38-3.08 3.109 6.04.046.076.019.025.036.044.026.026.038.035.03.023.019.016.018.011.052.031.036.019.057.022.036.013.066.016.031.006.099.008.102-.009.029-.005.03-.006.034-.011.035-.01 8.086-2.878c.273-.097.456-.355.456-.646v-7.438l38.183-14.031 4.307 5.644.011.014.025.028.031.033.026.024.038.03.015.013.011.006.074.045.009.005.089.036.025.007.068.017.027.005.095.007.116-.011.035-.008.053-.013.027-.011.02-.006 7.127-2.81c.247-.098.416-.329.433-.595l.452-7.28 8.762-3.22c.266-.098.443-.348.449-.63l.154-7.535v-.009zm-82.454 34.422l-16.105-31.58-.039-3.987 14.03 26.744 2.114 4.03v4.793zm12.335 3.312l-1.734-3.367 1.734-.62v3.987zm8.086-.533l-6.716 2.391v-6.343l3.889-1.459 2.827-1.039v6.45zm43.924-20.396l-.12 2.721-2.904-3.806 3.122-1.147-.098 2.232zm6.951 1.351l-5.738 2.263.188-4.276.092-2.082 5.845-2.147-.387 6.242zm9.643-11.105l-8.743 3.212v.001l-6.98 2.564-.443.163-4.796 1.763h-.001l-38.922 14.304-.189.04-3.753 1.408-7.702 2.83-.007.003-8.032 2.952v-6.351l79.692-28.96-.124 6.071zM78.837 20.728l-5.415-5.933c-.186-.202-.472-.274-.73-.186l-3.773 1.303c.687.293 1.373.571 2.06.739l1.735-.6 4.066 4.454c.685-.108 1.371-.018 2.057.223zM49.758 31.47v.011-.014zM49.763 31.665l-.005-.184.005.184zM56.521 52.312l-.035-.104c-.395-1.135-.988-2.851-4.622-6.014-4.108-3.575-9.177-7.462-17.382-8.324-7.374-.776-11.456 1.938-13.896 3.558-.415.275-.772.514-1.09.697l-.207.12c-2.234 1.293-3.848 2.228-4.448 4.683-.268 1.097-.313 2.598-.121 4.016.225 1.661.67 2.662 1.324 2.976.82.394 1.894-.109 4.08-1.339-.017 1.316.375 3.235 1.88 3.843 1.179.476 3.519.902 7.587 1.381 1.529.181 4.206.543 6.567.863 1.733.235 3.229.438 3.814.506.707.082 1.612.144 2.547.144 2.222 0 4.618-.349 4.958-1.607l.021-.125c1.292 1.39 2.383 2.701 3.029 3.533.16.206.401.316.646.316.147 0 .296-.04.43-.123 2.652-1.642 3.137-2.501 3.205-2.963.856-1.812 2.13-4.846 1.713-6.037zm-7.417-.413c-1.385-1.258-3.163-2.641-5.051-3.785.707-1.856.893-3.255.665-5.218 2.296 1.336 4.1 2.824 5.511 4.042-.014 1.861-.504 3.231-1.125 4.961zm-.908 4.038c-1.12-1.177-2.404-2.42-3.714-3.471l-.247-.629c-.26-.657-.65-1.646-.838-2.215 1.827 1.129 3.547 2.496 4.857 3.714l.343.319-.112.743c-.068.502-.14 1.02-.289 1.539zm-27.812-5.38l-.487-.265-.646-.354.217-.128c.855-.502 1.784-1.048 2.708-1.546.328.311.644.611.938.924-.317.095-.601.204-.843.332-.648.339-1.276.691-1.887 1.037zm8.126-10.88c.42 1.308-.258 2.321-1.036 3.48-.384.572-.775 1.158-1.021 1.793-1.063.082-2.29.518-3.566 1.119.642-1.361 1.203-3.107.95-4.726 1.255-.674 2.776-1.305 4.673-1.666zm-4.483 9.295c-.34-.394-.71-1.043-1.08-1.396 1.443-.731 2.822-1.576 3.832-1.576h.058c.788 1 1.614 1.7 2.192 2.421-.393-.011-.781.125-1.161.125-1.436 0-2.762.225-3.841.426zm5.895-.456c-.452-.609-1.095-1.331-1.784-1.949 2.001.013 4.274.098 6.347.289.271.495.534 1.105.792 1.703l.302.69c-1.746-.227-3.694-.418-5.577-.507-.003-.079-.029-.158-.08-.226zm6.604-8.695c2.838.54 5.25 1.485 7.301 2.578l.001.024c.311 2.107.191 3.426-.494 5.27-1.272-.718-2.577-1.311-3.832-1.669-1.066-.304-2.398-.523-3.796-.683.416-.56.741-1.275.94-2.097.301-1.24.249-2.483-.12-3.423zm.021 9.56c-.165-.338-.337-.735-.515-1.148-.186-.432-.376-.87-.573-1.277 1.383.157 2.634.366 3.594.641 1.115.318 2.281.844 3.425 1.485l-.01.096c-.022.267.175.854.762 2.353-1.101-.759-2.188-1.323-3.178-1.539-.877-.193-2.1-.41-3.505-.611zm-2.236-9.887c.411.044.812.098 1.208.157.516.764.646 2.094.329 3.399-.224.924-.634 1.733-1.14 2.222-2.926-.271-5.936-.272-7.289-.272h-.062c.211-1 .501-.903.801-1.351.772-1.152 1.637-2.459 1.171-4.09 1.443-.202 3.089-.263 4.982-.065zm-14.203 4.165l.208-.12c.361-.21.738-.46 1.175-.75.472-.313.992-.658 1.573-1.005.146 1.748-.726 3.677-1.429 4.916-1.008.534-2.024 1.131-2.994 1.701l-.547.321c-.069-.686.298-1.635.656-2.559.274-.705.554-1.429.672-2.105l.686-.399zm-3.679 3.657c.299-1.224.937-1.921 1.986-2.631-.123.385-.278.786-.432 1.182-.446 1.15-.906 2.337-.644 3.293-.378.218-.742.422-1.086.606-.045-.82-.008-1.698.176-2.45zm.049 4.173c.604-.302 1.268-.675 1.965-1.079.337.217.711.418 1.067.607l.032.017c-1.046.592-2.266 1.261-2.774 1.365-.099-.178-.202-.5-.29-.91zm29.589 6.093c-.671.323-2.505.654-5.938.256-.572-.066-2.062-.269-3.789-.502-2.367-.321-5.05-.685-6.591-.866-1.411-.166-5.704-.672-7.242-1.293-1.017-.41-1.122-2.452-.991-3.158l.001-.226c.495-.278 1-.558 1.513-.827 2.355-1.237 11.594-.488 16.673.62 2.012.439 4.796 2.873 7.115 5.279-.152.268-.276.521-.751.717zm5.287 1.947c-.517-.638-1.419-1.719-2.539-2.933l.08-.136c.231-.679.32-1.322.406-1.946l.025-.181c1.561 1.461 3.302 3.129 3.775 3.821-.283.312-.974.855-1.747 1.375zm2.493-3.031c-.757-.854-2.034-2.08-4.083-3.988l.09-.248c.582-1.624 1.059-2.949 1.173-4.629 3.093 2.738 3.567 4.105 3.915 5.11l.034.097c.079.413-.413 1.965-1.129 3.658zM56.612 25.329c-.952-.293-1.48-.293-1.95.234-.469.528-1.349 1.804-1.877 2.339-.527.536 1.188 1.005 1.914 1.592s.961.997 1.605.938l1.643-2.252c.821-.446.704-1.679 0-2.089-.703-.41-1.335-.762-1.335-.762zM78.304 22.847c-.651-.077-1.525.47-1.877 1.467-.353.997-.235 2.287.41 2.464.646.176 1.467.234 2.112.234s1.584-1.115 1.408-1.525c-.177-.41.41-1.231.352-1.818s-1.408-.705-2.405-.822zM66.802 17.986c-.704-.059-1.467.527-2.054 1.407-.586.88-.176 2.054.47 2.64.646.587 1.231 0 1.937 0 .703 0 1.349-.425 1.818-1.121.469-.697.469-1.166.879-1.519.411-.352-.16-.997-1.224-1.173l-1.826-.234zM85.395 24.739l-.013-.032-.003.019.003-.019c.104-.778-.608-2.18-1.517-2.607-.998-.47-4.196-1.408-5.324-1.643-.48-.1-.884-.18-1.275-.18-.529 0-1.035.146-1.672.59-.418.291-.84.611-1.244.943-.068-1.144-.143-2.004-.193-2.279l-.013-.032-.003.019.003-.019c.104-.778-.608-2.18-1.517-2.607-.998-.47-4.196-1.408-5.324-1.643-.48-.1-.884-.18-1.275-.18-.529 0-1.035.146-1.672.591-1.75 1.218-3.578 2.933-3.812 4.047-.057.266-.092.531-.094.795l.069.653c-.035-.151-.057-.303-.065-.454.02.706.059 1.956.111 3.354-1.373-.481-3.489-1.086-4.363-1.268-.479-.1-.884-.18-1.274-.18-.53 0-1.035.146-1.673.59-1.75 1.219-3.578 2.934-3.812 4.048-.056.266-.092.53-.094.795l.07.653c-.036-.151-.057-.303-.065-.454.056 2.05.275 8.679.559 10.21.293 1.584 1.232 2.288 3.343 3.461s3.754 1.84 5.455 1.429c.994-.239 1.98-1.033 2.82-2.033.053.671.109 1.211.168 1.529.293 1.584 1.231 2.288 3.344 3.461 2.111 1.173 3.754 1.84 5.455 1.429s3.383-2.445 4.346-4.361c.265-.527.361-2.13.367-3.999l.385.216c2.111 1.174 3.754 1.84 5.455 1.429 1.701-.41 3.383-2.445 4.346-4.361.72-1.439.188-10.867-.002-11.91zm-24.192-4.458l.061-.36c.174-.831 1.652-2.387 3.516-3.698.501-.354.915-.504 1.385-.504.329 0 .684.069 1.148.167 1.086.229 4.143 1.142 5.047 1.571.683.325 1.218 1.378 1.246 1.965.006.103-.003.193-.031.261-.253.614-1.854 3.076-2.855 3.769l-.415.292c-.851.604-1.731 1.229-2.485 1.229l-.161-.01c-.99-.129-3.854-1.232-5.249-2.248-1.474-1.072-1.334-1.413-1.207-2.434zm-1.766 10.707l-.408.292c-.837.604-1.704 1.229-2.446 1.229l-.158-.011c-.974-.128-3.791-1.232-5.164-2.249-1.122-.831-1.28-1.654-1.185-2.435l.06-.36c.17-.832 1.625-2.389 3.458-3.702.493-.353.9-.503 1.362-.503.324 0 .672.069 1.129.167 1.069.229 4.076 1.143 4.966 1.572.673.325 1.198 1.379 1.228 1.967.004.103-.004.192-.031.261-.251.616-1.826 3.079-2.811 3.772zm14.686.421c-.254.617-1.854 3.087-2.855 3.782l-.415.293c-.852.606-1.731 1.232-2.486 1.232l-.161-.01c-.99-.129-3.853-1.236-5.248-2.256-1.141-.833-1.302-1.659-1.205-2.441l.061-.361c.174-.835 1.651-2.396 3.516-3.712.501-.354.915-.506 1.385-.506.328 0 .684.069 1.147.168 1.087.229 4.143 1.146 5.047 1.577.683.326 1.218 1.383 1.247 1.972.003.104-.006.194-.033.262zm10.553-6.471c-.25.609-1.837 3.048-2.83 3.735l-.412.289c-.844.598-1.717 1.217-2.465 1.217l-.158-.01c-.982-.127-3.82-1.221-5.204-2.228-1.13-.822-1.29-1.639-1.194-2.411l.061-.356c.172-.824 1.637-2.365 3.484-3.665.497-.35.907-.499 1.373-.499.326 0 .678.069 1.138.166 1.077.226 4.106 1.131 5.003 1.558.678.321 1.208 1.364 1.236 1.946.005.102-.004.192-.032.258zM69.069 29.854c-.979-.458-1.451-1.043-2.233-.495s-1.438 1.774-1.841 2.291c-.404.516.112 1.171 1.048 1.559s1.544.892 2.041 1.088c.498.196.898-.797 1.636-1.414s.947-1.833.495-2.233c-.451-.402-1.146-.796-1.146-.796z"/><path d="M28.801 45.531c1.726.234 3.216.437 3.788.503 3.433.397 5.267.066 5.938-.256.475-.197.599-.449.752-.718-2.319-2.406-5.103-4.839-7.115-5.278-2.161-.472-5.074-.878-7.89-1.095-1.954.884-3.96 2.177-5.392 3.123-.991.655-1.838 1.304-2.521 1.961 1.932.433 4.755.766 5.849.894 1.54.182 4.224.546 6.591.866zM24.274 38.688c-3.804-.292-7.43-.237-8.783.474-.513.27-1.017.549-1.513.827v.226c-.132.707-.026 2.748.99 3.159.346.14.833.273 1.394.398.683-.657 1.53-1.306 2.521-1.961 1.43-.947 3.437-2.24 5.391-3.123zM32.513 38.187c.989.216 2.077.78 3.178 1.539-.406-1.039-.626-1.64-.715-1.999-1.818-.174-4.017-.282-5.977-.167l.008.018c1.404.199 2.628.416 3.506.609zM41.785 42.53l-.025.181c-.086.623-.175 1.267-.405 1.945l-.08.137c1.119 1.213 2.021 2.295 2.538 2.932.775-.521 1.466-1.062 1.748-1.374-.474-.693-2.216-2.361-3.776-3.821zM42.689 35.135c-1.411-1.218-3.214-2.706-5.511-4.042.228 1.962.042 3.361-.665 5.218 1.38.837 2.701 1.801 3.853 2.75.492.197.95.399 1.355.595.544-1.531.955-2.822.968-4.521zM15.347 34.266c1.277-.602 2.503-1.037 3.567-1.12.245-.634.637-1.22 1.021-1.792.777-1.159 1.456-2.174 1.035-3.48-1.896.36-3.418.991-4.672 1.667.252 1.617-.31 3.362-.951 4.725zM42.223 40.705c2.049 1.909 3.326 3.136 4.083 3.988.262-.62.494-1.22.679-1.753-1.545-1.056-3.38-2.212-4.119-2.672l-.402-.233-.151.422-.09.248zM41.721 39.655c-.405-.195-.863-.397-1.355-.595.424.349.825.696 1.198 1.034l.157-.439zM34.975 37.727c-.04-.16-.054-.272-.046-.354l.01-.096c-1.145-.641-2.311-1.167-3.425-1.484-.96-.274-2.211-.484-3.595-.641.197.407.387.845.573 1.277.175.406.345.797.507 1.131 1.959-.116 4.158-.007 5.976.167zM36.942 40.661c1.309 1.052 2.594 2.295 3.713 3.471.148-.519.22-1.035.29-1.537l.112-.743-.343-.319c-1.31-1.218-3.03-2.585-4.857-3.714.188.569.579 1.558.838 2.215l.247.627zM46.985 42.94c.32-.923.5-1.643.45-1.904l-.034-.097c-.348-1.005-.823-2.372-3.916-5.11-.104 1.531-.51 2.769-1.021 4.206l.402.233c.739.461 2.574 1.617 4.119 2.672zM36 30.596c-2-1.093-4.32-2.038-7.158-2.579.369.94.493 2.184.192 3.424-.199.822-.488 1.537-.904 2.097 1.398.159 2.747.379 3.813.684 1.255.358 2.425.95 3.697 1.668.686-1.844.36-3.162.36-5.27v-.024zM10.553 36.919l.547-.321c.97-.57 1.986-1.167 2.994-1.702.703-1.238 1.575-3.167 1.429-4.915-.581.346-1.101.69-1.572 1.004-.437.29-.814.541-1.175.75l-.208.12-.687.4c-.118.676-.398 1.399-.671 2.105-.359.924-.726 1.872-.657 2.559zM26.944 35.052c-2.072-.191-4.345-.277-6.347-.29.688.618 1.332 1.341 1.784 1.949.051.068.077.147.081.227 1.883.089 3.831.281 5.577.508l-.302-.691c-.258-.598-.522-1.208-.793-1.703zM27.979 27.848c-.396-.061-.796-.114-1.208-.157-1.893-.199-3.539-.134-4.982.067.467 1.632-.398 2.838-1.171 3.989-.3.447-.59.253-.802 1.253h.062c1.354 0 4.363.099 7.288.37.506-.489.917-1.252 1.14-2.176.318-1.305.188-2.584-.327-3.346zM19.297 34h-.059c-1.01 0-2.389.942-3.832 1.675.37.352.74.909 1.08 1.301 1.08-.199 2.405-.188 3.842-.188.38 0 .768-.328 1.161-.317-.578-.721-1.405-1.471-2.192-2.471zM10.902 38.605c-.697.404-1.361.778-1.965 1.08.089.41.192.731.291.909.508-.104 1.727-.773 2.773-1.364l-.031-.017c-.356-.19-.731-.39-1.068-.608zM10.442 34.063c.153-.396.309-.797.432-1.182-1.049.71-1.688 1.407-1.986 2.63-.184.752-.221 1.631-.176 2.45.344-.184.709-.389 1.087-.605-.262-.956.198-2.142.643-3.293zM14.637 36.459c-.924.498-1.854 1.044-2.709 1.547l-.217.128.646.354.487.265c.612-.346 1.239-.697 1.888-1.038.242-.127.526-.236.843-.331-.295-.313-.611-.614-.938-.925z" fill="none"/><path d="M49.397 41.193l-.036-.104c-.394-1.136-.988-2.852-4.622-6.015-4.107-3.575-9.176-7.462-17.382-8.324-7.374-.775-11.456 1.938-13.896 3.559-.415.275-.772.513-1.09.697l-.207.12c-2.234 1.293-3.848 2.227-4.448 4.683-.268 1.096-.313 2.597-.121 4.016.225 1.66.67 2.661 1.324 2.975.821.395 1.894-.109 4.081-1.338-.018 1.316.375 3.235 1.88 3.842.246.1.542.196.894.292.277-.385.613-.764 1.003-1.139-.561-.125-1.047-.259-1.394-.398-1.017-.411-1.122-2.452-.99-3.159v-.226c.496-.278 1-.558 1.513-.827 1.354-.711 4.979-.766 8.783-.474.946-.428 1.879-.759 2.729-.908.614-.107 1.29-.178 1.996-.22-.163-.334-.332-.725-.507-1.131-.186-.433-.376-.87-.573-1.277 1.383.156 2.634.366 3.595.641 1.115.317 2.281.844 3.425 1.484l-.01.096c-.007.082.007.194.046.354l.882.092c1.456.166 3.115.683 4.509 1.242-1.152-.949-2.473-1.913-3.853-2.75.708-1.856.893-3.256.665-5.218 2.296 1.336 4.1 2.824 5.511 4.042-.013 1.699-.424 2.99-.968 4.521.274.132.525.26.743.38.512-1.438.918-2.675 1.021-4.206 3.093 2.738 3.568 4.105 3.916 5.11l.034.097c.05.262-.13.981-.45 1.904.514.352.995.69 1.394.99.502-1.365.85-2.717.603-3.423zm-28.012-12.636c.421 1.307-.258 2.321-1.035 3.48-.384.572-.776 1.158-1.021 1.792-1.063.083-2.29.519-3.567 1.12.642-1.362 1.204-3.107.951-4.726 1.254-.675 2.776-1.306 4.672-1.666zm-9.089 4.382l.687-.4.208-.12c.361-.209.738-.46 1.175-.75.472-.313.991-.658 1.572-1.004.146 1.748-.726 3.677-1.429 4.915-1.008.535-2.023 1.132-2.994 1.702l-.547.321c-.068-.687.298-1.635.657-2.559.273-.706.554-1.429.671-2.105zm-2.992 3.257c.299-1.223.937-1.92 1.986-2.63-.123.385-.279.786-.432 1.182-.446 1.15-.906 2.337-.643 3.293-.378.217-.743.422-1.087.605-.045-.819-.008-1.698.176-2.45zm.339 5.083c-.098-.178-.201-.499-.291-.909.604-.302 1.268-.676 1.965-1.08.337.218.711.418 1.067.608l.031.017c-1.045.59-2.264 1.26-2.772 1.364zm5.504-2.88c-.649.341-1.276.692-1.888 1.038l-.487-.265-.646-.354.217-.128c.855-.503 1.785-1.049 2.709-1.547.327.311.643.612.938.925-.317.095-.601.204-.843.331zm5.597-.831c-1.437 0-2.762.084-3.842.283-.34-.393-.71-.983-1.08-1.334 1.443-.733 2.822-1.517 3.832-1.517h.059c.787 1 1.614 1.641 2.192 2.361-.394-.01-.781.207-1.161.207zm7.71.561c-1.746-.227-3.694-.419-5.577-.508-.003-.079-.03-.158-.081-.227-.452-.608-1.095-1.331-1.784-1.949 2.001.013 4.274.099 6.347.29.271.495.535 1.105.792 1.702l.303.692zm-.872-3.917c-2.925-.272-5.934-.212-7.288-.212h-.062c.212-1 .501-.964.801-1.411.772-1.151 1.638-2.489 1.171-4.12 1.443-.201 3.09-.28 4.982-.081.412.043.812.09 1.208.15.516.763.645 2.117.328 3.422-.223.924-.634 1.763-1.14 2.252zm8.275 2.361c-1.272-.718-2.401-1.31-3.656-1.668-1.066-.305-2.309-.524-3.707-.684.416-.56.784-1.274.983-2.097.301-1.24-.081-2.483-.45-3.424 2.839.542 4.973 1.487 6.973 2.58v.024c0 2.108.543 3.426-.143 5.269z"/></svg>