<svg xmlns="http://www.w3.org/2000/svg" width="100" height="100" viewBox="0 0 100 100"><path d="M8.144 61.626c-1.082-.888-1.864-2.124-2.381-3.502-.508-1.383-.658-2.976-.364-4.526.296-1.551 1.008-3.018 1.95-4.234.936-1.226 2.074-2.233 3.275-3.062l-.867 1.77c-.052-.998.034-1.75.175-2.616.139-.84.395-1.671.741-2.487.69-1.615 1.964-3.176 3.642-3.994 1.662-.843 3.466-.935 5.028-.656 1.577.301 3.006.87 4.279 1.711-1.52.055-2.967.05-4.3.323-1.329.236-2.501.689-3.33 1.375-.83.683-1.383 1.578-1.743 2.661-.19.535-.303 1.118-.4 1.711-.088.568-.121 1.271-.118 1.725l.007 1.188-.875.583c-.989.659-1.892 1.379-2.675 2.172-.768.804-1.418 1.677-1.855 2.679-.913 1.979-.948 4.539-.189 7.179zM8.863 49.028c-1.137-1.44-1.9-3.122-2.511-4.863-.583-1.751-.938-3.606-1.004-5.505-.057-1.896.151-3.843.723-5.713.55-1.876 1.466-3.655 2.627-5.23l.106-.144.068-.066c1.152-1.112 2.271-1.963 3.531-2.778 1.252-.786 2.579-1.475 3.999-1.965 1.411-.495 2.917-.81 4.43-.784 1.503.011 3.015.363 4.229 1.133-1.434-.031-2.748.196-3.975.614-1.223.427-2.363 1.006-3.452 1.677-1.084.678-2.125 1.437-3.115 2.262-.5.406-.987.83-1.456 1.27-.466.419-.963.901-1.33 1.303l.174-.21c-1.776 2.561-2.815 5.541-3.226 8.77-.21 1.613-.281 3.282-.237 4.988.03 1.711.197 3.44.419 5.241zM20.741 38.59c-.777-.149-1.518-.604-2.083-1.279-.565-.676-.92-1.599-.987-2.533-.076-.938.106-1.855.395-2.681.299-.826.712-1.567 1.174-2.244l-.395.96c.125-1.392.385-2.562.841-3.787.443-1.203 1.064-2.371 1.916-3.408.841-1.034 1.932-1.941 3.201-2.456 1.261-.52 2.657-.619 3.856-.208-2.202 1.277-3.281 2.827-4.132 4.597-.419.885-.771 1.823-1.091 2.79-.298.949-.609 2.021-.8 2.91l-.148.691-.247.269c-.831.905-1.542 1.804-1.921 2.778-.185.49-.292 1.025-.231 1.637.057.61.261 1.29.652 1.964zM75.812 36.07c.09-1.657.128-3.274-.063-4.805-.202-1.525-.608-2.951-1.371-4.05-.739-1.109-1.766-1.893-2.977-2.42-.608-.255-1.254-.46-1.925-.594-.334-.069-.675-.114-1.012-.157-.317-.039-.724-.064-.932-.058l-.93.028-.642-.824c-1.254-1.605-2.678-3.03-4.313-4.163-1.622-1.151-3.446-2.015-5.403-2.616-1.957-.601-4.047-.943-6.199-1.067-2.155-.119-4.361-.04-6.627.209 1.956-1.212 4.184-1.948 6.481-2.382 2.302-.424 4.72-.491 7.117-.077 2.393.406 4.751 1.311 6.833 2.661 2.081 1.354 3.863 3.132 5.258 5.122l-1.573-.796c.604.022 1.004.082 1.489.159.465.075.92.188 1.372.317.9.262 1.79.612 2.623 1.099 1.677.939 3.134 2.474 3.868 4.266.728 1.796.837 3.675.556 5.38-.259 1.715-.852 3.306-1.63 4.768zM76.173 30.312c1.734-.658 3.639-.533 5.407.066 1.769.613 3.421 1.819 4.554 3.42 1.146 1.594 1.735 3.516 1.797 5.354.045 1.846-.356 3.632-1.32 5.197-.697-1.697-1.186-3.216-1.766-4.588-.573-1.371-1.205-2.567-1.968-3.642-.763-1.075-1.671-2.046-2.786-2.983-1.117-.942-2.395-1.834-3.918-2.824zM73.293 40.39c2.277-.854 4.832-1.046 7.357-.559 2.525.47 5.039 1.842 6.815 3.93 1.796 2.074 2.805 4.662 3.305 7.191.489 2.55.522 5.095.29 7.566l-.019.197-.022.086c-.241.955-.531 1.7-.862 2.513-.326.794-.708 1.563-1.127 2.311-.835 1.495-1.862 2.896-3.075 4.124-1.237 1.199-2.628 2.271-4.201 2.95-1.549.711-3.237 1.053-4.862 1.006 1.505-.629 2.842-1.438 4.003-2.401 1.142-.989 2.144-2.081 2.946-3.323.83-1.215 1.506-2.531 2.079-3.89.285-.68.533-1.376.766-2.072.221-.68.428-1.451.555-2.044l-.041.282c.072-2.25.042-4.479-.324-6.593-.339-2.117-1.015-4.104-2.13-5.789-1.12-1.676-2.749-3.021-4.753-3.927-2.005-.896-4.298-1.393-6.7-1.558zM38.018 75.664c.137 1.445.732 2.813 1.673 3.757.95.946 2.217 1.415 3.525 1.572l.609.073.036.776c.05 1.094.354 2.296.824 3.261.482.981 1.197 1.745 2.076 2.189 1.762.909 4.132.711 6.373.089l.611-.17.752.472c.244.152.712.394 1.096.564.407.18.829.336 1.26.459.859.249 1.746.378 2.628.382 1.768.008 3.503-.492 5.123-1.335 1.62-.854 3.105-2.075 4.441-3.481 1.333-1.413 2.578-2.969 3.69-4.642l.34-.511.569-.232c.307-.126.817-.405 1.176-.664.384-.27.72-.572.982-.885.515-.644.752-1.225.697-1.965-.053-.742-.445-1.639-1.04-2.487-.589-.86-1.365-1.667-2.175-2.467l-.68-.67.14-.812c.286-1.66.296-3.621-.068-5.322-.351-1.727-1.112-3.324-2.46-4.377-1.324-1.081-3.179-1.596-5.089-1.687-1.921-.119-3.903.133-5.875.475 1.834-.806 3.774-1.429 5.839-1.673 2.039-.22 4.32-.042 6.305 1.162 1.986 1.193 3.322 3.281 3.966 5.384.324 1.062.52 2.143.622 3.222.097 1.101.123 2.117.013 3.311l-.539-1.481c1.015.817 1.967 1.75 2.83 2.854.844 1.104 1.639 2.438 1.887 4.133.121.838.063 1.753-.191 2.599-.247.851-.691 1.604-1.198 2.235-.511.632-1.088 1.153-1.692 1.598-.633.451-1.182.793-1.995 1.149l.909-.743c-1.2 1.84-2.513 3.646-4.101 5.264-1.586 1.611-3.406 3.083-5.531 4.159-2.107 1.093-4.579 1.686-7.024 1.529-1.221-.069-2.424-.313-3.565-.71-.572-.196-1.128-.435-1.669-.709-.562-.289-1.017-.563-1.623-1.029l1.363.302c-1.348.243-2.745.392-4.192.286-1.432-.103-2.968-.469-4.261-1.364-1.305-.875-2.231-2.215-2.701-3.583-.483-1.391-.593-2.755-.449-4.196l.646.85c-1.518-.396-3.016-1.259-3.901-2.585-.903-1.303-1.185-2.888-.982-4.326zM51.696 59.106c1.371-.684 2.614-1.576 3.533-2.663.949-1.065 1.457-2.35 1.527-3.619l1.854-.554.238.077c.09.017.156.005.219-.017.115-.041.294-.153.505-.389.416-.473.834-1.232 1.147-2.035.649-1.625 1.093-3.446 1.479-5.272l.255-1.204 1.424-.149c3.095-.325 6.613-1.494 8.044-3.59.73-1.048.975-2.253.82-3.838-.144-1.543-.52-3.146-1.165-4.548-.639-1.415-1.555-2.669-2.736-3.585-1.18-.921-2.638-1.479-4.241-1.646-1.603-.154-3.315.076-5.003.53-1.689.462-3.363 1.138-5.022 1.909 1.333-1.253 2.827-2.361 4.497-3.237 1.667-.87 3.532-1.52 5.554-1.632 2.008-.148 4.174.324 5.987 1.448 1.829 1.102 3.247 2.763 4.229 4.569.98 1.83 1.554 3.775 1.801 5.821.305 1.981-.047 4.591-1.453 6.506-1.384 1.939-3.362 3.09-5.272 3.784-.965.357-1.939.607-2.918.779-.997.169-1.913.291-3.009.305l1.679-1.353c-.567 1.924-1.22 3.843-2.242 5.719-.539.925-1.109 1.885-2.153 2.702-.514.395-1.232.78-2.095.782-.422.001-.844-.101-1.199-.272-.375-.189-.624-.358-.96-.729l1.854-.554c-.379 1.754-1.499 3.241-2.807 4.207-.667.483-1.38.86-2.112 1.155-.736.283-1.491.501-2.259.593zM34.419 31.031c-.379-2.128-.056-4.277.713-6.312.788-2.016 2.144-3.992 4.194-5.324 1.021-.654 2.195-1.119 3.4-1.314 1.205-.189 2.42-.136 3.532.143 2.234.553 4.086 1.785 5.437 3.449-2.135-.201-4.046-.45-5.767-.321-1.723.111-3.145.578-4.438 1.406-1.293.832-2.486 2.052-3.62 3.486-1.141 1.438-2.218 3.045-3.451 4.787zM92.05 78.104s6.84-4.679 6.119-11.519c0 0-6.479 5.04-7.559.361 0 0-7.198 8.278-9.719 5.758 0 0 4.318 5.76-2.52 8.999.001 0 3.24-2.159 13.679-3.599zM62.357 96.032s22.889-16.906 24.035-14.78c.001 0-4.628 13.465-24.035 14.78zM17.502 23.472s.36-4.318 8.998-2.519c0 0 30.595-8.639 32.395-11.519 0 0-1.8-4.679-6.479-1.079 0 0-2.879 2.88-12.958 5.399l-17.997 4.679c0 .001-2.519.36-3.959 5.039zM56.085 39.438c-.462-5.776-2.074-11.771-3.38-17.418-3.246 1.452-6.485 2.922-9.597 4.648-12.524 6.946-23.304 17.2-31.937 28.562-.535.704-1.761 1.886-1.948 2.797-.59 2.866-.534 6.739.673 9.442 1.422 3.183 4.192 5.924 7.547 7.932l.083.048c.19-2.585 1.138-5.607 2.617-8.879-1.194-2.027-3.861-7.636-1.281-13.942 0 0-1.264 9.482 2.131 12.156 1.196-2.414 2.634-4.932 4.237-7.486-1.17-1.959-3.943-7.64-1.33-14.029 0 0-1.326 9.967 2.403 12.343 1.486-2.285 3.081-4.583 4.723-6.841-.755-1.327-2.236-4.654-.711-8.381 0 0-.785 5.923 1.386 7.465 1.412-1.918 2.847-3.802 4.272-5.619-.56-1.041-1.474-3.333-.43-5.885 0 0-.541 4.077.896 5.297 7.894-9.996 15.256-17.814 15.256-17.814l-11 18.139c1.807.408 4.843-1.926 4.843-1.926-1.652 2.136-4.026 2.521-5.234 2.569l-4.29 7.075c2.294 1.637 7.478-2.354 7.478-2.354-2.909 3.761-7.429 3.618-8.211 3.563l-3.479 5.737c4.025 1.685 11.6-4.501 11.6-4.501-4.095 5.622-10.455 6.214-12.692 6.238-1.953 2.988-3.285 6.423-4.498 9.754 4.166 1.147 11.056-5.479 11.056-5.479-3.459 5.654-9.321 6.915-11.794 7.198-.983 2.104-2.274 4.563-2.159 6.502.063 1.053.667 1.742 1.5 2.197 2.498.639 5.073.839 7.489.289 4.962-1.129 6.884-5.339 9.446-9.231 2.967-4.509 7.806-7.471 10.488-12.19 3.076-5.413 4.342-11.786 3.847-17.976z"/></svg>