<?xml version="1.0" encoding="utf-8"?>
<!-- Generator: Adobe Illustrator 16.0.0, SVG Export Plug-In . SVG Version: 6.00 Build 0)  -->
<!DOCTYPE svg PUBLIC "-//W3C//DTD SVG 1.1//EN" "http://www.w3.org/Graphics/SVG/1.1/DTD/svg11.dtd">
<svg version="1.1" id="Layer_1" xmlns="http://www.w3.org/2000/svg" xmlns:xlink="http://www.w3.org/1999/xlink" x="0px" y="0px"
	 width="100px" height="93.028px" viewBox="0 0 100 93.028" enable-background="new 0 0 100 93.028" xml:space="preserve">
<g>
	<path fill="#010101" d="M27.882,76.26h15.651h24.523c1.853,0,3.355-1.505,3.355-3.355c0-1.853-1.503-3.354-3.355-3.354H43.533
		H27.882H3.354C1.5,69.55,0,71.052,0,72.904c0,1.851,1.5,3.355,3.354,3.355H27.882z"/>
	<path fill="#010101" d="M99.233,19.722c-0.559-0.615-1.351-0.965-2.183-0.965H74.36v-7.142l6.298-7.958L76.035,0L69.1,8.761
		c-0.412,0.521-0.636,1.166-0.636,1.829v8.167H45.773c-0.832,0-1.624,0.35-2.181,0.965c-0.56,0.616-0.832,1.439-0.752,2.266
		l1.898,19.667c-2.868-0.561-5.896-0.868-9.033-0.868c-17.828,0-32.287,9.728-32.348,21.74H3.355v3.669h3.356h0.312h24.213h8.943
		H64.39h0.312h3.356v-3.669h-0.002c-0.043-8.331-7.015-15.562-17.232-19.211l-1.802-18.664h44.785l-6.042,62.48H68.057v-3.851
		v-3.668h-3.354H64.39H40.177h-8.943H7.021H6.709H3.354v3.668v6.394c0,1.851,1.503,3.354,3.356,3.354h24.525h8.943h12.204h12.321
		h25.737c1.517,0,2.786-1.152,2.932-2.664l6.616-68.375C100.065,21.161,99.795,20.338,99.233,19.722z"/>
</g>
</svg>
