<svg xmlns="http://www.w3.org/2000/svg" xmlns:xlink="http://www.w3.org/1999/xlink" version="1.1" id="Layer_1" x="0px" y="0px" width="50px" height="50px" viewBox="0 0 50 50" enable-background="new 0 0 50 50" xml:space="preserve">
<g>
	<path fill-rule="evenodd" clip-rule="evenodd" fill="#000000" d="M44.104,11.163c0.779-0.705,0.704-1.413-0.15-2.119   c-4.348,0.819-31.488,11.599-32.084,13.682C22.578,18.858,33.359,15.03,44.104,11.163z"/>
	<path fill-rule="evenodd" clip-rule="evenodd" fill="#000000" d="M36.52,2.613c-0.484-3.271-4.054,0.521-6.617,2.082   c-2.642,2.043-4.833,3.531-7.547,5.578c-2.566,1.968-13.312,9.478-13.906,11.783L36.52,2.613z"/>
	<path fill-rule="evenodd" clip-rule="evenodd" fill="#000000" d="M18.671,26.926c2.752-1.076,2.381-4.869,7.548-2.936   c0.483,0.781,0,1.45-0.632,2.229c3.235-1.261,5.245-2.86,7.66,1.303c1.896-0.631,5.726,0.93,6.023-0.074   c-1.488-0.816-3.05-1.486-5.354-1.486c-0.744-0.707-1.523-1.376-2.305-2.083c-1.19-0.372-2.416-0.335-3.641,0.111   c-1.268-0.818-1.936-1.747-4.092-1.747c-2.12,0-2.791,0.929-4.017,1.747c-3.271,0-3.568,0.036-5.986,2.229   c-1.561,0.447-3.159,0.855-4.721,1.303c0.073,0.223,0.111,0.447,0.186,0.631c1.747-0.258,3.495-0.52,5.242-0.779   C15.214,24.995,20.048,23.582,18.671,26.926z"/>
	<path fill-rule="evenodd" clip-rule="evenodd" fill="#000000" d="M5.363,28.861c-0.224,8.625,5.279,16.691,11.079,19.816h16.917   c0.036-0.113,5.986-5.133,7.434-7.734c1.637-3.014,3.05-7.732,3.05-12.082H5.363z"/>
</g>
</svg>