<svg xmlns="http://www.w3.org/2000/svg" xmlns:xlink="http://www.w3.org/1999/xlink" version="1.1" id="Livello_1" x="0px" y="0px" width="100px" height="100px" viewBox="0 0 100 100" enable-background="new 0 0 100 100" xml:space="preserve">
<path d="M38.322,14c0-0.552-0.447-1-1-1h-6c-0.553,0-1,0.448-1,1v1c0,0.552,0.447,1,1,1h6c0.553,0,1-0.448,1-1V14z"/>
<path d="M37.322,27.333V17h-3h-3v10.333c0,6.872-8,12.128-8,19v39c0,1.104,0.896,1.667,2,1.667h18c1.104,0,2-0.562,2-1.666v-39  C45.322,39.461,37.322,34.206,37.322,27.333z"/>
<path d="M72.096,72.816C72.909,66.201,80.213,54,74.532,35h-4.347h-7.303h-4.06c-5.683,19,1.623,31.201,2.435,37.816  C62.07,79.436,62.07,83,59.635,87h3.248h7.303h3.535C71.286,83,71.286,79.436,72.096,72.816z"/>
</svg>