<svg xmlns="http://www.w3.org/2000/svg" xmlns:xlink="http://www.w3.org/1999/xlink" version="1.1" id="Layer_1" x="0px" y="0px" width="100px" height="100px" viewBox="0 0 100 100" enable-background="new 0 0 100 100" xml:space="preserve">
<path fill-rule="evenodd" clip-rule="evenodd" d="M28.922,42.703c-2.275-1.365-2.932-2.519-2.578-4.36  c0.549-2.858,2.558-5.018,5.072-5.416c3.945-0.624,7.396,0.687,10.634,2.776c0.705,0.455,1.394,0.936,2.068,1.436  c0.817,0.606,1.682,0.645,2.599,0.3c0.112-0.042,0.31-0.094,0.313-0.149c0.062-1.209,1.188-1.05,1.866-1.372  c0.77-0.365-0.534-0.984,0.252-1.208c0.453-0.129,1.192-0.091,1.228-0.562c0.061-0.8,0.526-0.711,1.025-0.807  c0.742-0.143,0.936-0.629,0.645-1.232c0.683-0.436,2.157,0.589,1.94-1.228c0.602,0.062,1.227,0.144,1.854,0.181  c0.266,0.015,0.727,0.058,0.746-0.212c0.07-0.929,0.57-0.354,0.85-0.258c1.232,0.422,2.011,1.526,3.111,2.134  c0.43,0.238,0.974,1.624,1.576,0.036c0.111-0.293,0.628,0.097,0.806,0.377c0.546,0.858,1.649,1.263,1.889,2.373  c0.076,0.357,0.433,0.289,0.702,0.297c6.202,0.189,12.039,1.823,17.68,4.337c2.765,1.232,5.763,1.879,8.483,3.255  c1.466,0.741,2.884,1.55,4.235,2.478c0.43,0.295,0.861,0.517,1.416,0.572c1.371,0.137,1.742,0.733,1.252,2.037  c-0.364,0.969-0.852,1.891-1.288,2.833c-0.269,0.58-0.553,1.151-0.814,1.734c-0.914,2.034-0.91,2.033,0.647,3.59  c0.65,0.649,1.334,1.279,1.756,2.112c0.538,1.062,0.27,1.757-0.835,2.179c-0.369,0.141-0.771,0.297-1.153,0.289  c-2.766-0.057-5.322,0.949-7.966,1.511c-2.833,0.603-5.698,0.819-8.581,0.509c-2.816-0.305-5.578,0.272-8.365,0.422  c-0.687,0.037-0.757,0.588-0.879,1.102c-0.541,2.285-1.512,4.358-2.995,6.197c-0.574,0.713-0.996,0.71-1.63,0.07  c-1.011-1.021-1.762-3.852-1.273-5.146c0.12-0.318,0.307-0.504,0.671-0.594c0.489-0.119,1.019-0.192,1.564-0.688  c-1.865,0.144-3.524,0.68-5.465,0.687c1.349-1.163,2.599-2.176,3.285-3.667c-1.51,1.55-3.149,2.92-5.028,3.987  c-3.568,2.025-8.423,1-10.747-2.262c-1.079-1.515-0.979-2.075,0.685-2.781c4.181-1.773,8.536-2.866,13.078-3.182  c0.754-0.053,1.332-0.016,1.68,0.891c0.302,0.784,1.06,1.24,2.206,1.268c-0.988-0.619-1.781-1.143-2.067-2.146  c-0.139-0.483-0.604-0.471-1.004-0.451c-4.982,0.256-9.822,1.192-14.415,3.182c-1.508,0.652-1.721,1.301-1.202,2.748  c-3.524-0.559-6.675-1.986-9.589-3.896c-1.137-0.745-2.098-0.809-3.304-0.35c-2.406,0.914-4.88,1.499-7.496,1.168  c-3.173-0.4-5.307-2.715-5.226-5.656c0.033-1.184,0.464-2.082,1.714-2.683c-1.564-0.756-3.119-0.939-4.679-0.979  c-1.903-0.049-3.719,0.381-5.426,1.262c-3.593,1.854-7.267,3.484-11.318,4.076c-1.488,0.219-1.908-0.076-1.865-1.617  c0.074-2.678,1.101-5.046,2.549-7.244c0.548-0.833,1.154-1.636,1.804-2.392c1.192-1.387,1.472-2.936,1.108-4.698  c-0.601-2.907-0.191-5.716,1.009-8.418c0.113-0.255,0.228-0.512,0.371-0.751c1.173-1.956,2.171-2.083,3.721-0.418  c1.919,2.061,3.459,4.423,4.8,6.864C19.329,42.07,23.525,43.436,28.922,42.703z M97.385,59.768c0.487-0.023,0.889-0.026,1.057-0.398  c0.153-0.339-0.124-0.61-0.342-0.833c-0.585-0.599-1.189-1.179-1.793-1.757c-1.352-1.297-1.424-1.473-0.663-3.209  c0.591-1.348,1.296-2.644,1.929-3.973c0.229-0.48,0.795-1.073,0.438-1.477c-0.369-0.42-1.063,0.015-1.552,0.227  c-3.497,1.515-5.535,4.428-7.241,7.65c-0.166,0.314-0.065,0.527,0.209,0.699C91.916,58.26,94.598,59.313,97.385,59.768z   M72.436,61.891c-0.39-0.535-0.975-0.623-1.526-0.783c-1.109-0.319-2.982-2.67-2.914-3.82c0.075-1.266-0.382-2.328-0.95-3.393  c-0.394-0.736-0.792-1.479-1.09-2.258c-1.588-4.141-0.213-7.583,3.786-9.554c0.424-0.209,0.856-0.401,1.286-0.602  c-2.884,0.402-4.992,1.819-5.915,4.644c-0.938,2.874-0.194,5.501,1.302,7.988c0.452,0.75,1.012,1.449,1.033,2.379  C67.51,59.284,69.393,61.541,72.436,61.891z M74.111,48.273c-1.141,3.177-0.656,6.19,1.386,8.853  c2.751,3.587,6.649,4.134,10.813,3.777C76.995,61.029,72.904,55.33,74.111,48.273z M88.556,57.201  c-0.354,0.072-0.614,0.153-0.879,0.176c-0.883,0.073-1.693-0.146-2.267-0.84c-0.581-0.703-0.222-1.439,0.102-2.133  c0.687-1.475,1.707-2.692,2.944-3.733c0.614-0.516,1.235-1.022,1.854-1.533c-2.446,1.311-4.413,3.098-5.549,5.659  c-0.399,0.9-0.413,1.802,0.467,2.486C86.2,58.037,87.521,58.023,88.556,57.201z M53.805,63.789c3.255-1.121,6.406-2.459,9.394-4.166  C59.913,60.666,56.803,62.11,53.805,63.789z M62.462,58.95c-2.886,0.271-8.401,2.327-10.313,3.878  C55.745,61.314,59.108,60.115,62.462,58.95z M62.25,58.238c-2.482-0.156-9.096,1.521-10.58,2.896  C55.272,59.846,58.723,58.93,62.25,58.238z M63.031,60.726c-2.509,1.324-5.019,2.649-7.528,3.974  C58.298,63.908,60.824,62.586,63.031,60.726z M11.166,49.762c-2.511,0.425-4.998,0.95-7.403,1.81  C6.323,51.344,8.784,50.713,11.166,49.762z M14.916,49.129c-1.014-2.944-0.147-5.299,2.4-7.357  C14.408,42.936,13.325,46.508,14.916,49.129z M64.076,61.301c-1.833,1.291-3.742,2.438-5.557,3.729  C60.702,64.275,62.6,63.09,64.076,61.301z M40.015,37.132c-2.277-1.457-4.753-2.425-7.478-2.681  C35.077,35.187,37.555,36.095,40.015,37.132z M10.866,31.088c1.088,2.443,2.605,4.54,4.157,6.612  c0.083-0.057,0.167-0.114,0.25-0.171C13.804,35.382,12.335,33.235,10.866,31.088z M68.42,55.84c1.039,2.32,3.491,3.486,6.113,3.108  C70.848,58.143,70.571,58.006,68.42,55.84z M9.292,33.3c1.381,1.979,2.921,3.819,4.659,5.493  C12.547,36.835,11.079,34.933,9.292,33.3z M11.403,51.286c-2.414,0.845-4.828,1.688-7.242,2.533  c0.031,0.091,0.063,0.183,0.094,0.273C6.712,53.372,9.137,52.559,11.403,51.286z M53.256,36.212  c3.047-0.191,6.079-0.446,9.122-0.522C59.311,35.436,56.273,35.748,53.256,36.212z M32.174,35.375  c2.199,0.796,4.4,1.584,6.587,2.414C36.72,36.549,34.546,35.684,32.174,35.375z M4.996,48.817c2.183,0.007,4.346-0.149,6.46-0.723  C9.271,48.062,7.119,48.317,4.996,48.817z M34.546,55.938c-1.36-1.464-5.188-3.443-6.655-3.436  C30.307,53.5,32.469,54.637,34.546,55.938z M13.59,40.971c-1.412-1.651-2.902-3.222-4.635-4.549  C10.269,38.172,11.857,39.645,13.59,40.971z M12.148,46.799c-1.746-0.29-3.491-0.637-5.235,0  C8.658,46.799,10.403,46.799,12.148,46.799z M25.711,57.314c2.153-0.058,4.292-0.191,6.244-1.258  C29.896,56.592,27.797,56.916,25.711,57.314z M35.903,37.909c-1.628-1.09-4.529-1.935-5.798-1.706  C32.167,36.592,33.998,37.327,35.903,37.909z M34.17,33.718c1.94,0.521,3.773,1.347,5.663,2.011  C38.094,34.639,36.258,33.82,34.17,33.718z M33.239,57.016c-1.958,0.471-3.934,0.859-5.905,1.271  C29.383,58.244,31.385,57.977,33.239,57.016z M69.312,58.688c1.347,1.496,3.08,1.537,4.903,1.205  C72.519,59.777,70.844,59.581,69.312,58.688z M30.307,55.262c-1.756,0.349-3.512,0.697-5.269,1.045  C26.847,56.227,28.661,56.174,30.307,55.262z M27.834,39.564c1.652,0.095,3.251,0.537,5.11,0.828  C31.242,39.514,29.576,39.254,27.834,39.564z M29.534,37.321c1.69,0.294,3.298,0.933,4.977,1.277  C32.952,37.778,31.319,37.249,29.534,37.321z M9.014,39.709c0.97,1.087,2.14,1.918,3.487,2.499  C11.492,41.173,10.363,40.304,9.014,39.709z M33.242,39.297c-1.61-0.734-3.269-1.212-5.056-0.979  C29.915,38.425,31.556,38.975,33.242,39.297z M12.557,43.896c-1.183-0.787-2.435-1.418-3.821-1.742  C9.887,43.012,11.181,43.547,12.557,43.896z M86.999,45.864c-0.342,0.089-0.634,0.511-0.638,0.744  c-0.01,0.473,0.482,0.519,0.887,0.507c0.356-0.011,0.635-0.195,0.618-0.559C87.846,46.097,87.512,45.896,86.999,45.864z   M74.737,60.566c-1.283,0.078-2.566,0.113-3.85,0.028C72.172,61.188,73.455,61.102,74.737,60.566z M41.347,38.818  c-1.495,0.208-2.881,0.704-4.118,1.595C38.602,39.881,39.974,39.35,41.347,38.818z M33.263,58.314  c-1.173,0.208-2.346,0.416-3.519,0.623C30.99,59.183,32.149,58.895,33.263,58.314z M11.775,45.169  c-1.309-0.567-2.354-0.84-3.46-0.86C9.315,44.768,10.331,45.166,11.775,45.169z M28.311,40.729c1.202,0.053,2.347,0.362,3.515,0.474  C30.719,40.458,29.511,40.512,28.311,40.729z M70.265,65.732c-0.521,1.029-1.043,2.059-1.563,3.088  C69.62,68.008,70.084,66.974,70.265,65.732z"/>
<path fill-rule="evenodd" clip-rule="evenodd" d="M72.276,65.799c0.067,1.464-0.166,2.645-0.344,3.826  c-0.06,0.399,0.054,1.082-0.752,0.92c-0.627-0.127-1.438-1.159-1.212-1.593c0.722-1.389,1.247-2.84,1.546-4.376  c0.054-0.275,0.124-0.604,0.491-0.546c0.299,0.046,0.264,0.356,0.268,0.59C72.282,65.099,72.276,65.578,72.276,65.799z"/>
</svg>