<svg xmlns="http://www.w3.org/2000/svg" xmlns:xlink="http://www.w3.org/1999/xlink" version="1.1" id="Layer_1" x="0px" y="0px" width="100px" height="100px" viewBox="0 0 100 100" enable-background="new 0 0 100 100" xml:space="preserve">
<path d="M50,2.5C23.809,2.5,2.5,23.808,2.5,50c0,26.191,21.309,47.5,47.5,47.5c26.191,0,47.5-21.309,47.5-47.5  C97.5,23.808,76.191,2.5,50,2.5z M50,95.314C25.014,95.314,4.686,74.986,4.686,50C4.686,25.014,25.014,4.686,50,4.686  c24.986,0,45.314,20.328,45.314,45.314C95.314,74.986,74.986,95.314,50,95.314z M49.453,96.865v-0.014  c0.184,0.002,0.363,0.014,0.547,0.014H49.453z"/>
<path fill="#000000" d="M49.453,96.865H50c-0.184,0-0.363-0.012-0.547-0.014V96.865z"/>
<path d="M49.453,93.464V51.318L19.615,81.159C27.354,88.661,37.856,93.32,49.453,93.464z M45.81,65.723  c0.626,0,1.134,0.508,1.134,1.133s-0.508,1.133-1.134,1.133c-0.623,0-1.131-0.508-1.131-1.133S45.187,65.723,45.81,65.723z   M44.679,86.884c0,0.735-0.598,1.333-1.334,1.333c-0.734,0-1.332-0.598-1.332-1.333c0-0.737,0.598-1.334,1.332-1.334  C44.081,85.55,44.679,86.146,44.679,86.884z M43.057,77.827c0,0.976-0.792,1.769-1.768,1.769s-1.768-0.793-1.768-1.769  c0-0.978,0.792-1.769,1.768-1.769S43.057,76.852,43.057,77.827z M39.521,66.855c0.833,0,1.507,0.674,1.507,1.506  s-0.674,1.507-1.507,1.507c-0.832,0-1.507-0.675-1.507-1.507C38.015,67.529,38.689,66.855,39.521,66.855z M31.357,78.354  c1.124,0,2.038,0.912,2.038,2.039c0,1.125-0.914,2.037-2.038,2.037c-1.125,0-2.039-0.912-2.039-2.037  C29.318,79.266,30.232,78.354,31.357,78.354z"/>
<path d="M6.345,50.547c0.194,11.618,4.92,22.13,12.493,29.844l29.843-29.844H6.345z M13.726,57.745  c-0.976,0-1.768-0.792-1.768-1.769s0.792-1.768,1.768-1.768s1.768,0.791,1.768,1.768C15.493,56.953,14.701,57.745,13.726,57.745z   M20.347,72.077c-1.44,0-2.61-1.169-2.61-2.611s1.17-2.61,2.61-2.61c1.443,0,2.613,1.168,2.613,2.61S21.79,72.077,20.347,72.077z   M26.39,61.346c-1.125,0-2.038-0.914-2.038-2.039c0-1.127,0.913-2.039,2.038-2.039c1.127,0,2.041,0.912,2.041,2.039  C28.431,60.432,27.517,61.346,26.39,61.346z M38.188,55.268c-0.736,0-1.334-0.599-1.334-1.334c0-0.736,0.598-1.334,1.334-1.334  s1.334,0.598,1.334,1.334C39.521,54.669,38.924,55.268,38.188,55.268z"/>
<path d="M18.838,19.609C11.265,27.323,6.539,37.835,6.345,49.453h42.336L18.838,19.609z M13.726,46.332  c-1.039,0-1.883-0.843-1.883-1.882s0.844-1.882,1.883-1.882c1.04,0,1.883,0.843,1.883,1.882S14.766,46.332,13.726,46.332z   M17.423,32.889c0-1.539,1.248-2.789,2.79-2.789c1.539,0,2.787,1.25,2.787,2.789c0,1.541-1.248,2.79-2.787,2.79  C18.671,35.679,17.423,34.43,17.423,32.889z M23.22,44.675c-0.625,0-1.131-0.508-1.131-1.132c0-0.625,0.506-1.132,1.131-1.132  c0.626,0,1.132,0.507,1.132,1.132C24.352,44.167,23.846,44.675,23.22,44.675z M31.763,45.176c-0.901,0-1.633-0.732-1.633-1.634  c0-0.9,0.731-1.632,1.633-1.632c0.9,0,1.633,0.731,1.633,1.632S32.663,45.176,31.763,45.176z"/>
</svg>