<svg xmlns="http://www.w3.org/2000/svg" xmlns:xlink="http://www.w3.org/1999/xlink" version="1.1" id="Layer_1" x="0px" y="0px" width="100px" height="100px" viewBox="0 0 100 100" enable-background="new 0 0 100 100" xml:space="preserve">
<path d="M60.7,20.2c0.03-0.612,0.329-1.123,0.628-1.667l-27.939,9.649c0.597,0.275,1.208,0.528,1.808,0.825L60.7,20.2z"/>
<path d="M100,44.18c0-0.014-0.002-0.028-0.002-0.043c-0.001-0.014-0.002-0.027-0.003-0.04c-0.001-0.014-0.005-0.027-0.007-0.041  s-0.004-0.027-0.008-0.041c-0.003-0.014-0.008-0.026-0.012-0.039c-0.004-0.014-0.008-0.027-0.013-0.04s-0.011-0.025-0.016-0.037  c-0.006-0.014-0.011-0.026-0.018-0.039c-0.007-0.012-0.014-0.023-0.021-0.035c-0.008-0.012-0.014-0.024-0.022-0.036  c-0.007-0.011-0.016-0.021-0.024-0.032s-0.018-0.022-0.027-0.033c-0.002-0.004-0.004-0.007-0.008-0.01L85.111,27.601  c-0.166,0.584-0.23,1.168-0.256,1.752l13.263,14.528L18.56,72.793L6.775,50.328l-5.109-9.74l6.219-2.147  c-0.043-0.473-0.093-0.938-0.104-1.414l-7.315,2.526c-0.007,0.003-0.013,0.007-0.021,0.01c-0.031,0.012-0.061,0.026-0.09,0.042  c-0.011,0.006-0.021,0.011-0.031,0.018c-0.038,0.023-0.073,0.051-0.105,0.081c-0.005,0.005-0.01,0.011-0.015,0.016  c-0.026,0.026-0.05,0.055-0.072,0.085c-0.008,0.011-0.015,0.023-0.022,0.035c-0.018,0.027-0.033,0.057-0.046,0.086  c-0.003,0.008-0.009,0.015-0.012,0.023c-0.003,0.007-0.005,0.014-0.007,0.021c-0.002,0.008-0.01,0.016-0.012,0.023  c-0.01,0.032-0.029,0.065-0.029,0.098c0,0.001,0,0.001,0,0.002C0.003,40.126,0,40.16,0,40.195c0,0.004,0.001,0.008,0.001,0.012  l0.07,6.99c0.001,0.105,0.027,0.21,0.075,0.305l17.475,34.263c0,0.001,0.001,0.001,0.001,0.002c0.014,0.027,0.029,0.053,0.046,0.077  c0.005,0.008,0.011,0.014,0.016,0.021c0.013,0.017,0.025,0.033,0.04,0.049c0.008,0.009,0.017,0.017,0.025,0.025  c0.013,0.013,0.025,0.024,0.039,0.036c0.01,0.008,0.02,0.016,0.029,0.023c0.007,0.006,0.014,0.012,0.021,0.018  c0.006,0.003,0.012,0.006,0.017,0.01c0.017,0.011,0.034,0.021,0.052,0.03c0.012,0.007,0.023,0.013,0.036,0.019  c0.019,0.009,0.038,0.016,0.058,0.022c0.012,0.005,0.023,0.009,0.035,0.013c0.023,0.007,0.047,0.012,0.071,0.017  c0.008,0.001,0.017,0.004,0.025,0.005c0.033,0.005,0.066,0.008,0.1,0.008c0.036,0,0.071-0.004,0.106-0.01  c0.009-0.001,0.018-0.003,0.027-0.005c0.009-0.001,0.018-0.002,0.027-0.005c0.013-0.003,0.026-0.009,0.039-0.013  c0.012-0.004,0.025-0.006,0.037-0.01l8.38-3.08l3.109,6.04c0,0,0,0,0,0c0.014,0.026,0.029,0.052,0.046,0.076  c0.006,0.009,0.013,0.017,0.019,0.025c0.012,0.015,0.023,0.029,0.036,0.044c0.008,0.009,0.017,0.018,0.026,0.026  c0.012,0.012,0.025,0.023,0.038,0.035c0.01,0.008,0.02,0.016,0.03,0.023c0.006,0.005,0.012,0.011,0.019,0.016  c0.006,0.004,0.012,0.007,0.018,0.011c0.017,0.011,0.035,0.021,0.052,0.031c0.012,0.006,0.024,0.013,0.036,0.019  c0.019,0.008,0.038,0.016,0.057,0.022c0.012,0.004,0.024,0.009,0.036,0.013c0.021,0.007,0.043,0.011,0.066,0.016  c0.01,0.002,0.02,0.005,0.031,0.006c0.033,0.005,0.065,0.008,0.099,0.008l0,0l0,0c0,0,0,0,0,0c0.034,0,0.068-0.004,0.102-0.009  c0.01-0.001,0.019-0.003,0.029-0.005s0.02-0.003,0.03-0.006c0.012-0.003,0.022-0.008,0.034-0.011  c0.011-0.004,0.023-0.005,0.035-0.01l8.086-2.878c0.273-0.097,0.456-0.355,0.456-0.646v-7.438l38.183-14.031l4.307,5.644  c0.003,0.005,0.007,0.009,0.011,0.014c0.008,0.01,0.017,0.02,0.025,0.028c0.01,0.012,0.021,0.022,0.031,0.033  c0.009,0.009,0.018,0.017,0.026,0.024c0.013,0.011,0.024,0.021,0.038,0.03c0.005,0.004,0.01,0.009,0.015,0.013  c0.003,0.002,0.007,0.004,0.011,0.006c0.023,0.017,0.049,0.032,0.074,0.045c0.004,0.002,0.006,0.004,0.009,0.005  c0.028,0.015,0.058,0.026,0.089,0.036c0.008,0.003,0.016,0.005,0.025,0.007c0.022,0.007,0.045,0.013,0.068,0.017  c0.01,0.002,0.019,0.004,0.027,0.005c0.031,0.004,0.062,0.007,0.095,0.007c0.038,0,0.077-0.004,0.116-0.011  c0.012-0.002,0.023-0.005,0.035-0.008c0.018-0.004,0.035-0.007,0.053-0.013c0.01-0.003,0.019-0.008,0.027-0.011  c0.007-0.002,0.014-0.003,0.02-0.006l7.127-2.81c0.247-0.098,0.416-0.329,0.433-0.595l0.452-7.28l8.762-3.22  c0.266-0.098,0.443-0.348,0.449-0.63L100,44.189C100,44.186,100,44.184,100,44.18z M17.546,78.602L1.441,47.022l-0.039-3.987  l14.03,26.744l2.114,4.03V78.602z M29.881,81.914l-1.734-3.367l1.734-0.62V81.914z M37.967,81.381l-6.716,2.391v-6.343l3.889-1.459  l2.827-1.039V81.381z M81.891,60.985l-0.12,2.721L78.867,59.9l3.122-1.147L81.891,60.985z M88.842,62.336l-5.738,2.263l0.188-4.276  l0.092-2.082l5.845-2.147L88.842,62.336z M98.485,51.231l-8.743,3.212c0,0.001,0,0.001,0,0.001l-6.98,2.564l-0.443,0.163  l-4.796,1.763c-0.001,0-0.001,0-0.001,0L38.6,73.238c-0.064,0.005-0.127,0.018-0.189,0.04l-3.753,1.408l-7.702,2.83l-0.007,0.003h0  l-8.032,2.952v-6.351L98.609,45.16L98.485,51.231z"/>
<path d="M78.837,20.728l-5.415-5.933c-0.186-0.202-0.472-0.274-0.73-0.186l-3.773,1.303c0.687,0.293,1.373,0.571,2.06,0.739  l1.735-0.6l4.066,4.454C77.465,20.397,78.151,20.487,78.837,20.728z"/>
<polygon points="49.758,31.47 49.758,31.481 49.758,31.467 "/>
<path d="M49.763,31.665c-0.002-0.065-0.003-0.127-0.005-0.184C49.758,31.543,49.76,31.604,49.763,31.665z"/>
<path d="M56.521,52.312l-0.035-0.104c-0.395-1.135-0.988-2.851-4.622-6.014c-4.108-3.575-9.177-7.462-17.382-8.324  c-7.374-0.776-11.456,1.938-13.896,3.558c-0.415,0.275-0.772,0.514-1.09,0.697l-0.207,0.12c-2.234,1.293-3.848,2.228-4.448,4.683  c-0.268,1.097-0.313,2.598-0.121,4.016c0.225,1.661,0.67,2.662,1.324,2.976c0.82,0.394,1.894-0.109,4.08-1.339  c-0.017,1.316,0.375,3.235,1.88,3.843c1.179,0.476,3.519,0.902,7.587,1.381c1.529,0.181,4.206,0.543,6.567,0.863  c1.733,0.235,3.229,0.438,3.814,0.506c0.707,0.082,1.612,0.144,2.547,0.144c2.222,0,4.618-0.349,4.958-1.607  c0.011-0.042,0.017-0.083,0.021-0.125c1.292,1.39,2.383,2.701,3.029,3.533c0.16,0.206,0.401,0.316,0.646,0.316  c0.147,0,0.296-0.04,0.43-0.123c2.652-1.642,3.137-2.501,3.205-2.963C55.664,56.537,56.938,53.503,56.521,52.312z M49.104,51.899  c-1.385-1.258-3.163-2.641-5.051-3.785c0.707-1.856,0.893-3.255,0.665-5.218c2.296,1.336,4.1,2.824,5.511,4.042  C50.215,48.799,49.725,50.169,49.104,51.899z M48.196,55.937c-1.12-1.177-2.404-2.42-3.714-3.471  c-0.07-0.182-0.152-0.39-0.247-0.629c-0.26-0.657-0.65-1.646-0.838-2.215c1.827,1.129,3.547,2.496,4.857,3.714  c0.111,0.104,0.226,0.211,0.343,0.319c-0.043,0.25-0.078,0.498-0.112,0.743C48.417,54.9,48.345,55.418,48.196,55.937z   M20.384,50.557c-0.148-0.083-0.312-0.171-0.487-0.265c-0.195-0.104-0.422-0.226-0.646-0.354c0.072-0.042,0.145-0.085,0.217-0.128  c0.855-0.502,1.784-1.048,2.708-1.546c0.328,0.311,0.644,0.611,0.938,0.924c-0.317,0.095-0.601,0.204-0.843,0.332  C21.623,49.859,20.995,50.211,20.384,50.557z M28.51,39.677c0.42,1.308-0.258,2.321-1.036,3.48  c-0.384,0.572-0.775,1.158-1.021,1.793c-1.063,0.082-2.29,0.518-3.566,1.119c0.642-1.361,1.203-3.107,0.95-4.726  C25.092,40.669,26.613,40.038,28.51,39.677z M24.027,48.972c-0.34-0.394-0.71-1.043-1.08-1.396C24.39,46.845,25.769,46,26.779,46  c0.019,0,0.039,0,0.058,0c0.788,1,1.614,1.7,2.192,2.421c-0.393-0.011-0.781,0.125-1.161,0.125  C26.432,48.546,25.106,48.771,24.027,48.972z M29.922,48.516c-0.452-0.609-1.095-1.331-1.784-1.949  c2.001,0.013,4.274,0.098,6.347,0.289c0.271,0.495,0.534,1.105,0.792,1.703c0.102,0.236,0.203,0.469,0.302,0.69  c-1.746-0.227-3.694-0.418-5.577-0.507C29.999,48.663,29.973,48.584,29.922,48.516z M36.526,39.821  c2.838,0.54,5.25,1.485,7.301,2.578c0,0.009,0,0.017,0.001,0.024c0.311,2.107,0.191,3.426-0.494,5.27  c-1.272-0.718-2.577-1.311-3.832-1.669c-1.066-0.304-2.398-0.523-3.796-0.683c0.416-0.56,0.741-1.275,0.94-2.097  C36.947,42.004,36.895,40.761,36.526,39.821z M36.547,49.381c-0.165-0.338-0.337-0.735-0.515-1.148  c-0.186-0.432-0.376-0.87-0.573-1.277c1.383,0.157,2.634,0.366,3.594,0.641c1.115,0.318,2.281,0.844,3.425,1.485  c-0.003,0.031-0.007,0.062-0.01,0.096c-0.022,0.267,0.175,0.854,0.762,2.353c-1.101-0.759-2.188-1.323-3.178-1.539  C39.175,49.799,37.952,49.582,36.547,49.381z M34.311,39.494c0.411,0.044,0.812,0.098,1.208,0.157  c0.516,0.764,0.646,2.094,0.329,3.399c-0.224,0.924-0.634,1.733-1.14,2.222C31.782,45.001,28.772,45,27.419,45  c-0.021,0-0.042,0-0.062,0c0.211-1,0.501-0.903,0.801-1.351c0.772-1.152,1.637-2.459,1.171-4.09  C30.772,39.357,32.418,39.296,34.311,39.494z M20.108,43.659l0.208-0.12c0.361-0.21,0.738-0.46,1.175-0.75  c0.472-0.313,0.992-0.658,1.573-1.005c0.146,1.748-0.726,3.677-1.429,4.916c-1.008,0.534-2.024,1.131-2.994,1.701  c-0.185,0.108-0.367,0.216-0.547,0.321c-0.069-0.686,0.298-1.635,0.656-2.559c0.274-0.705,0.554-1.429,0.672-2.105  C19.638,43.931,19.866,43.799,20.108,43.659z M16.429,47.316c0.299-1.224,0.937-1.921,1.986-2.631  c-0.123,0.385-0.278,0.786-0.432,1.182c-0.446,1.15-0.906,2.337-0.644,3.293c-0.378,0.218-0.742,0.422-1.086,0.606  C16.208,48.946,16.245,48.068,16.429,47.316z M16.478,51.489c0.604-0.302,1.268-0.675,1.965-1.079  c0.337,0.217,0.711,0.418,1.067,0.607c0.011,0.006,0.021,0.011,0.032,0.017c-1.046,0.592-2.266,1.261-2.774,1.365  C16.669,52.221,16.566,51.899,16.478,51.489z M46.067,57.582c-0.671,0.323-2.505,0.654-5.938,0.256  c-0.572-0.066-2.062-0.269-3.789-0.502c-2.367-0.321-5.05-0.685-6.591-0.866c-1.411-0.166-5.704-0.672-7.242-1.293  c-1.017-0.41-1.122-2.452-0.991-3.158c0.015-0.077,0.012-0.152,0.001-0.226c0.495-0.278,1-0.558,1.513-0.827  c2.355-1.237,11.594-0.488,16.673,0.62c2.012,0.439,4.796,2.873,7.115,5.279C46.666,57.133,46.542,57.386,46.067,57.582z   M51.354,59.529c-0.517-0.638-1.419-1.719-2.539-2.933c0.034-0.039,0.062-0.084,0.08-0.136c0.231-0.679,0.32-1.322,0.406-1.946  c0.008-0.061,0.017-0.12,0.025-0.181c1.561,1.461,3.302,3.129,3.775,3.821C52.818,58.466,52.127,59.009,51.354,59.529z   M53.847,56.498c-0.757-0.854-2.034-2.08-4.083-3.988c0.03-0.083,0.06-0.165,0.09-0.248c0.582-1.624,1.059-2.949,1.173-4.629  c3.093,2.738,3.567,4.105,3.915,5.11l0.034,0.097C55.055,53.253,54.563,54.805,53.847,56.498z"/>
<path d="M56.612,25.329c-0.952-0.293-1.48-0.293-1.95,0.234c-0.469,0.528-1.349,1.804-1.877,2.339  c-0.527,0.536,1.188,1.005,1.914,1.592s0.961,0.997,1.605,0.938c0.646-0.059,0.822-1.806,1.643-2.252  c0.821-0.446,0.704-1.679,0-2.089C57.244,25.681,56.612,25.329,56.612,25.329z"/>
<path d="M78.304,22.847c-0.651-0.077-1.525,0.47-1.877,1.467c-0.353,0.997-0.235,2.287,0.41,2.464  c0.646,0.176,1.467,0.234,2.112,0.234c0.645,0,1.584-1.115,1.408-1.525c-0.177-0.41,0.41-1.231,0.352-1.818  S79.301,22.964,78.304,22.847z"/>
<path d="M66.802,17.986c-0.704-0.059-1.467,0.527-2.054,1.407c-0.586,0.88-0.176,2.054,0.47,2.64c0.646,0.587,1.231,0,1.937,0  c0.703,0,1.349-0.425,1.818-1.121c0.469-0.697,0.469-1.166,0.879-1.519c0.411-0.352-0.16-0.997-1.224-1.173  S66.802,17.986,66.802,17.986z"/>
<path d="M85.395,24.739c-0.002-0.011-0.008-0.021-0.013-0.032c-0.001,0.006-0.003,0.012-0.003,0.019c0-0.017,0-0.025,0.003-0.019  c0.104-0.778-0.608-2.18-1.517-2.607c-0.998-0.47-4.196-1.408-5.324-1.643c-0.48-0.1-0.884-0.18-1.275-0.18  c-0.529,0-1.035,0.146-1.672,0.59c-0.418,0.291-0.84,0.611-1.244,0.943c-0.068-1.144-0.143-2.004-0.193-2.279  c-0.002-0.011-0.008-0.021-0.013-0.032c-0.001,0.006-0.003,0.012-0.003,0.019c0-0.017,0-0.025,0.003-0.019  c0.104-0.778-0.608-2.18-1.517-2.607c-0.998-0.47-4.196-1.408-5.324-1.643c-0.48-0.1-0.884-0.18-1.275-0.18  c-0.529,0-1.035,0.146-1.672,0.591c-1.75,1.218-3.578,2.933-3.812,4.047c-0.057,0.266-0.092,0.531-0.094,0.795  c0-0.025,0.027,0.259,0.069,0.653c-0.035-0.151-0.057-0.303-0.065-0.454c0.02,0.706,0.059,1.956,0.111,3.354  c-1.373-0.481-3.489-1.086-4.363-1.268c-0.479-0.1-0.884-0.18-1.274-0.18c-0.53,0-1.035,0.146-1.673,0.59  c-1.75,1.219-3.578,2.934-3.812,4.048c-0.056,0.266-0.092,0.53-0.094,0.795c0-0.025,0.028,0.259,0.07,0.653  c-0.036-0.151-0.057-0.303-0.065-0.454c0.056,2.05,0.275,8.679,0.559,10.21c0.293,1.584,1.232,2.288,3.343,3.461  s3.754,1.84,5.455,1.429c0.994-0.239,1.98-1.033,2.82-2.033c0.053,0.671,0.109,1.211,0.168,1.529  c0.293,1.584,1.231,2.288,3.344,3.461c2.111,1.173,3.754,1.84,5.455,1.429s3.383-2.445,4.346-4.361  c0.265-0.527,0.361-2.13,0.367-3.999c0.123,0.07,0.252,0.143,0.385,0.216c2.111,1.174,3.754,1.84,5.455,1.429  c1.701-0.41,3.383-2.445,4.346-4.361C86.117,35.21,85.585,25.782,85.395,24.739z M61.203,20.281c0.016-0.121,0.036-0.241,0.061-0.36  c0.174-0.831,1.652-2.387,3.516-3.698c0.501-0.354,0.915-0.504,1.385-0.504c0.329,0,0.684,0.069,1.148,0.167  c1.086,0.229,4.143,1.142,5.047,1.571c0.683,0.325,1.218,1.378,1.246,1.965c0.006,0.103-0.003,0.193-0.031,0.261  c-0.253,0.614-1.854,3.076-2.855,3.769c-0.137,0.095-0.275,0.193-0.415,0.292c-0.851,0.604-1.731,1.229-2.485,1.229  c-0.055,0-0.109-0.004-0.161-0.01c-0.99-0.129-3.854-1.232-5.249-2.248C60.936,21.643,61.076,21.302,61.203,20.281z M59.437,30.988  c-0.134,0.095-0.271,0.193-0.408,0.292c-0.837,0.604-1.704,1.229-2.446,1.229c-0.054,0-0.107-0.004-0.158-0.011  c-0.974-0.128-3.791-1.232-5.164-2.249c-1.122-0.831-1.28-1.654-1.185-2.435c0.015-0.121,0.035-0.241,0.06-0.36  c0.17-0.832,1.625-2.389,3.458-3.702c0.493-0.353,0.9-0.503,1.362-0.503c0.324,0,0.672,0.069,1.129,0.167  c1.069,0.229,4.076,1.143,4.966,1.572c0.673,0.325,1.198,1.379,1.228,1.967c0.004,0.103-0.004,0.192-0.031,0.261  C61.997,27.832,60.422,30.295,59.437,30.988z M74.123,31.409c-0.254,0.617-1.854,3.087-2.855,3.782  c-0.137,0.096-0.275,0.193-0.415,0.293c-0.852,0.606-1.731,1.232-2.486,1.232c-0.055,0-0.108-0.003-0.161-0.01  c-0.99-0.129-3.853-1.236-5.248-2.256c-1.141-0.833-1.302-1.659-1.205-2.441c0.016-0.122,0.036-0.242,0.061-0.361  c0.174-0.835,1.651-2.396,3.516-3.712c0.501-0.354,0.915-0.506,1.385-0.506c0.328,0,0.684,0.069,1.147,0.168  c1.087,0.229,4.143,1.146,5.047,1.577c0.683,0.326,1.218,1.383,1.247,1.972C74.159,31.251,74.15,31.341,74.123,31.409z   M84.676,24.938c-0.25,0.609-1.837,3.048-2.83,3.735c-0.136,0.094-0.273,0.19-0.412,0.289c-0.844,0.598-1.717,1.217-2.465,1.217  c-0.054,0-0.107-0.004-0.158-0.01c-0.982-0.127-3.82-1.221-5.204-2.228c-1.13-0.822-1.29-1.639-1.194-2.411  c0.015-0.12,0.035-0.238,0.061-0.356c0.172-0.824,1.637-2.365,3.484-3.665c0.497-0.35,0.907-0.499,1.373-0.499  c0.326,0,0.678,0.069,1.138,0.166c1.077,0.226,4.106,1.131,5.003,1.558c0.678,0.321,1.208,1.364,1.236,1.946  C84.713,24.782,84.704,24.872,84.676,24.938z"/>
<path d="M69.069,29.854c-0.979-0.458-1.451-1.043-2.233-0.495s-1.438,1.774-1.841,2.291c-0.404,0.516,0.112,1.171,1.048,1.559  s1.544,0.892,2.041,1.088c0.498,0.196,0.898-0.797,1.636-1.414s0.947-1.833,0.495-2.233C69.764,30.248,69.069,29.854,69.069,29.854z  "/>
<path fill="none" d="M28.801,45.531c1.726,0.234,3.216,0.437,3.788,0.503c3.433,0.397,5.267,0.066,5.938-0.256  c0.475-0.197,0.599-0.449,0.752-0.718c-2.319-2.406-5.103-4.839-7.115-5.278c-2.161-0.472-5.074-0.878-7.89-1.095  c-1.954,0.884-3.96,2.177-5.392,3.123c-0.991,0.655-1.838,1.304-2.521,1.961c1.932,0.433,4.755,0.766,5.849,0.894  C23.75,44.847,26.434,45.211,28.801,45.531z"/>
<path fill="none" d="M24.274,38.688c-3.804-0.292-7.43-0.237-8.783,0.474c-0.513,0.27-1.017,0.549-1.513,0.827  c0.012,0.073,0.014,0.149,0,0.226c-0.132,0.707-0.026,2.748,0.99,3.159c0.346,0.14,0.833,0.273,1.394,0.398  c0.683-0.657,1.53-1.306,2.521-1.961C20.313,40.864,22.32,39.571,24.274,38.688z"/>
<path fill="none" d="M32.513,38.187c0.989,0.216,2.077,0.78,3.178,1.539c-0.406-1.039-0.626-1.64-0.715-1.999  c-1.818-0.174-4.017-0.282-5.977-0.167c0.003,0.006,0.005,0.012,0.008,0.018C30.411,37.777,31.635,37.994,32.513,38.187z"/>
<path fill="none" d="M41.785,42.53c-0.008,0.06-0.017,0.12-0.025,0.181c-0.086,0.623-0.175,1.267-0.405,1.945  c-0.018,0.053-0.046,0.098-0.08,0.137c1.119,1.213,2.021,2.295,2.538,2.932c0.775-0.521,1.466-1.062,1.748-1.374  C45.087,45.658,43.345,43.99,41.785,42.53z"/>
<path fill="none" d="M42.689,35.135c-1.411-1.218-3.214-2.706-5.511-4.042c0.228,1.962,0.042,3.361-0.665,5.218  c1.38,0.837,2.701,1.801,3.853,2.75c0.492,0.197,0.95,0.399,1.355,0.595C42.265,38.125,42.676,36.834,42.689,35.135z"/>
<path fill="none" d="M15.347,34.266c1.277-0.602,2.503-1.037,3.567-1.12c0.245-0.634,0.637-1.22,1.021-1.792  c0.777-1.159,1.456-2.174,1.035-3.48c-1.896,0.36-3.418,0.991-4.672,1.667C16.55,31.158,15.988,32.903,15.347,34.266z"/>
<path fill="none" d="M42.223,40.705c2.049,1.909,3.326,3.136,4.083,3.988c0.262-0.62,0.494-1.22,0.679-1.753  c-1.545-1.056-3.38-2.212-4.119-2.672c-0.118-0.073-0.253-0.151-0.402-0.233c-0.05,0.139-0.1,0.279-0.151,0.422  C42.284,40.54,42.253,40.622,42.223,40.705z"/>
<path fill="none" d="M41.721,39.655c-0.405-0.195-0.863-0.397-1.355-0.595c0.424,0.349,0.825,0.696,1.198,1.034  C41.618,39.945,41.67,39.8,41.721,39.655z"/>
<path fill="none" d="M34.975,37.727c-0.04-0.16-0.054-0.272-0.046-0.354c0.002-0.033,0.006-0.064,0.01-0.096  c-1.145-0.641-2.311-1.167-3.425-1.484c-0.96-0.274-2.211-0.484-3.595-0.641c0.197,0.407,0.387,0.845,0.573,1.277  c0.175,0.406,0.345,0.797,0.507,1.131C30.958,37.444,33.157,37.553,34.975,37.727z"/>
<path fill="none" d="M36.942,40.661c1.309,1.052,2.594,2.295,3.713,3.471c0.148-0.519,0.22-1.035,0.29-1.537  c0.034-0.245,0.068-0.493,0.112-0.743c-0.117-0.109-0.232-0.216-0.343-0.319c-1.31-1.218-3.03-2.585-4.857-3.714  c0.188,0.569,0.579,1.558,0.838,2.215C36.79,40.272,36.872,40.48,36.942,40.661z"/>
<path fill="none" d="M46.985,42.94c0.32-0.923,0.5-1.643,0.45-1.904l-0.034-0.097c-0.348-1.005-0.823-2.372-3.916-5.11  c-0.104,1.531-0.51,2.769-1.021,4.206c0.149,0.082,0.284,0.16,0.402,0.233C43.605,40.729,45.44,41.885,46.985,42.94z"/>
<path fill="none" d="M36,30.596c-2-1.093-4.32-2.038-7.158-2.579c0.369,0.94,0.493,2.184,0.192,3.424  c-0.199,0.822-0.488,1.537-0.904,2.097c1.398,0.159,2.747,0.379,3.813,0.684c1.255,0.358,2.425,0.95,3.697,1.668  C36.326,34.046,36,32.728,36,30.62C36,30.611,36,30.604,36,30.596z"/>
<path fill="none" d="M10.553,36.919c0.181-0.106,0.363-0.213,0.547-0.321c0.97-0.57,1.986-1.167,2.994-1.702  c0.703-1.238,1.575-3.167,1.429-4.915c-0.581,0.346-1.101,0.69-1.572,1.004c-0.437,0.29-0.814,0.541-1.175,0.75l-0.208,0.12  c-0.242,0.141-0.47,0.272-0.687,0.4c-0.118,0.676-0.398,1.399-0.671,2.105C10.851,35.284,10.484,36.232,10.553,36.919z"/>
<path fill="none" d="M26.944,35.052c-2.072-0.191-4.345-0.277-6.347-0.29c0.688,0.618,1.332,1.341,1.784,1.949  c0.051,0.068,0.077,0.147,0.081,0.227c1.883,0.089,3.831,0.281,5.577,0.508c-0.1-0.223-0.2-0.454-0.302-0.691  C27.479,36.157,27.215,35.547,26.944,35.052z"/>
<path fill="none" d="M27.979,27.848c-0.396-0.061-0.796-0.114-1.208-0.157c-1.893-0.199-3.539-0.134-4.982,0.067  c0.467,1.632-0.398,2.838-1.171,3.989C20.318,32.194,20.028,32,19.816,33c0.021,0,0.041,0,0.062,0c1.354,0,4.363,0.099,7.288,0.37  c0.506-0.489,0.917-1.252,1.14-2.176C28.624,29.889,28.494,28.61,27.979,27.848z"/>
<path fill="none" d="M19.297,34c-0.02,0-0.039,0-0.059,0c-1.01,0-2.389,0.942-3.832,1.675c0.37,0.352,0.74,0.909,1.08,1.301  c1.08-0.199,2.405-0.188,3.842-0.188c0.38,0,0.768-0.328,1.161-0.317C20.911,35.75,20.084,35,19.297,34z"/>
<path fill="none" d="M10.902,38.605c-0.697,0.404-1.361,0.778-1.965,1.08c0.089,0.41,0.192,0.731,0.291,0.909  c0.508-0.104,1.727-0.773,2.773-1.364c-0.011-0.006-0.021-0.012-0.031-0.017C11.614,39.023,11.239,38.823,10.902,38.605z"/>
<path fill="none" d="M10.442,34.063c0.153-0.396,0.309-0.797,0.432-1.182c-1.049,0.71-1.688,1.407-1.986,2.63  c-0.184,0.752-0.221,1.631-0.176,2.45c0.344-0.184,0.709-0.389,1.087-0.605C9.537,36.4,9.997,35.214,10.442,34.063z"/>
<path fill="none" d="M14.637,36.459c-0.924,0.498-1.854,1.044-2.709,1.547c-0.073,0.043-0.145,0.085-0.217,0.128  c0.224,0.129,0.451,0.25,0.646,0.354c0.175,0.093,0.339,0.181,0.487,0.265c0.612-0.346,1.239-0.697,1.888-1.038  c0.242-0.127,0.526-0.236,0.843-0.331C15.28,37.071,14.964,36.77,14.637,36.459z"/>
<path d="M49.397,41.193l-0.036-0.104c-0.394-1.136-0.988-2.852-4.622-6.015c-4.107-3.575-9.176-7.462-17.382-8.324  c-7.374-0.775-11.456,1.938-13.896,3.559c-0.415,0.275-0.772,0.513-1.09,0.697l-0.207,0.12c-2.234,1.293-3.848,2.227-4.448,4.683  c-0.268,1.096-0.313,2.597-0.121,4.016c0.225,1.66,0.67,2.661,1.324,2.975c0.821,0.395,1.894-0.109,4.081-1.338  c-0.018,1.316,0.375,3.235,1.88,3.842c0.246,0.1,0.542,0.196,0.894,0.292c0.277-0.385,0.613-0.764,1.003-1.139  c-0.561-0.125-1.047-0.259-1.394-0.398c-1.017-0.411-1.122-2.452-0.99-3.159c0.014-0.076,0.012-0.152,0-0.226  c0.496-0.278,1-0.558,1.513-0.827c1.354-0.711,4.979-0.766,8.783-0.474c0.946-0.428,1.879-0.759,2.729-0.908  c0.614-0.107,1.29-0.178,1.996-0.22c-0.163-0.334-0.332-0.725-0.507-1.131c-0.186-0.433-0.376-0.87-0.573-1.277  c1.383,0.156,2.634,0.366,3.595,0.641c1.115,0.317,2.281,0.844,3.425,1.484c-0.004,0.031-0.007,0.062-0.01,0.096  c-0.007,0.082,0.007,0.194,0.046,0.354c0.305,0.029,0.602,0.06,0.882,0.092c1.456,0.166,3.115,0.683,4.509,1.242  c-1.152-0.949-2.473-1.913-3.853-2.75c0.708-1.856,0.893-3.256,0.665-5.218c2.296,1.336,4.1,2.824,5.511,4.042  c-0.013,1.699-0.424,2.99-0.968,4.521c0.274,0.132,0.525,0.26,0.743,0.38c0.512-1.438,0.918-2.675,1.021-4.206  c3.093,2.738,3.568,4.105,3.916,5.11l0.034,0.097c0.05,0.262-0.13,0.981-0.45,1.904c0.514,0.352,0.995,0.69,1.394,0.99  C49.296,43.251,49.644,41.899,49.397,41.193z M21.385,28.557c0.421,1.307-0.258,2.321-1.035,3.48  c-0.384,0.572-0.776,1.158-1.021,1.792c-1.063,0.083-2.29,0.519-3.567,1.12c0.642-1.362,1.204-3.107,0.951-4.726  C17.967,29.548,19.489,28.917,21.385,28.557z M12.296,32.939c0.217-0.128,0.445-0.26,0.687-0.4l0.208-0.12  c0.361-0.209,0.738-0.46,1.175-0.75c0.472-0.313,0.991-0.658,1.572-1.004c0.146,1.748-0.726,3.677-1.429,4.915  c-1.008,0.535-2.023,1.132-2.994,1.702c-0.184,0.108-0.367,0.215-0.547,0.321c-0.068-0.687,0.298-1.635,0.657-2.559  C11.898,34.338,12.179,33.615,12.296,32.939z M9.304,36.196c0.299-1.223,0.937-1.92,1.986-2.63  c-0.123,0.385-0.279,0.786-0.432,1.182c-0.446,1.15-0.906,2.337-0.643,3.293c-0.378,0.217-0.743,0.422-1.087,0.605  C9.083,37.827,9.12,36.948,9.304,36.196z M9.643,41.279c-0.098-0.178-0.201-0.499-0.291-0.909c0.604-0.302,1.268-0.676,1.965-1.08  c0.337,0.218,0.711,0.418,1.067,0.608c0.01,0.005,0.021,0.011,0.031,0.017C11.37,40.505,10.151,41.175,9.643,41.279z M15.147,38.399  c-0.649,0.341-1.276,0.692-1.888,1.038c-0.147-0.084-0.312-0.172-0.487-0.265c-0.195-0.104-0.422-0.226-0.646-0.354  c0.073-0.043,0.145-0.085,0.217-0.128c0.855-0.503,1.785-1.049,2.709-1.547c0.327,0.311,0.643,0.612,0.938,0.925  C15.673,38.163,15.389,38.272,15.147,38.399z M20.744,37.568c-1.437,0-2.762,0.084-3.842,0.283c-0.34-0.393-0.71-0.983-1.08-1.334  C17.265,35.784,18.644,35,19.654,35c0.02,0,0.039,0,0.059,0c0.787,1,1.614,1.641,2.192,2.361  C21.511,37.351,21.124,37.568,20.744,37.568z M28.454,38.129c-1.746-0.227-3.694-0.419-5.577-0.508  c-0.003-0.079-0.03-0.158-0.081-0.227c-0.452-0.608-1.095-1.331-1.784-1.949c2.001,0.013,4.274,0.099,6.347,0.29  c0.271,0.495,0.535,1.105,0.792,1.702C28.254,37.675,28.354,37.907,28.454,38.129z M27.582,34.212C24.657,33.94,21.648,34,20.294,34  c-0.021,0-0.041,0-0.062,0c0.212-1,0.501-0.964,0.801-1.411c0.772-1.151,1.638-2.489,1.171-4.12c1.443-0.201,3.09-0.28,4.982-0.081  c0.412,0.043,0.812,0.09,1.208,0.15c0.516,0.763,0.645,2.117,0.328,3.422C28.499,32.884,28.088,33.723,27.582,34.212z   M35.857,36.573c-1.272-0.718-2.401-1.31-3.656-1.668c-1.066-0.305-2.309-0.524-3.707-0.684c0.416-0.56,0.784-1.274,0.983-2.097  c0.301-1.24-0.081-2.483-0.45-3.424C31.866,29.242,34,30.187,36,31.28c0,0.008,0,0.016,0,0.024  C36,33.412,36.543,34.73,35.857,36.573z"/>
</svg>