<svg xmlns="http://www.w3.org/2000/svg" xmlns:xlink="http://www.w3.org/1999/xlink" version="1.1" id="Your_Icon" x="0px" y="0px" width="100px" height="100px" viewBox="0 0 100 100" enable-background="new 0 0 100 100" xml:space="preserve">
<g>
	<path d="M8.144,61.626c-1.082-0.888-1.864-2.124-2.381-3.502c-0.508-1.383-0.658-2.976-0.364-4.526   c0.296-1.551,1.008-3.018,1.95-4.234c0.936-1.226,2.074-2.233,3.275-3.062l-0.867,1.77c-0.052-0.998,0.034-1.75,0.175-2.616   c0.139-0.84,0.395-1.671,0.741-2.487c0.69-1.615,1.964-3.176,3.642-3.994c1.662-0.843,3.466-0.935,5.028-0.656   c1.577,0.301,3.006,0.87,4.279,1.711c-1.52,0.055-2.967,0.05-4.3,0.323c-1.329,0.236-2.501,0.689-3.33,1.375   c-0.83,0.683-1.383,1.578-1.743,2.661c-0.19,0.535-0.303,1.118-0.4,1.711c-0.088,0.568-0.121,1.271-0.118,1.725l0.007,1.188   l-0.875,0.583c-0.989,0.659-1.892,1.379-2.675,2.172c-0.768,0.804-1.418,1.677-1.855,2.679C7.42,56.426,7.385,58.986,8.144,61.626z   "/>
</g>
<g>
	<path d="M8.863,49.028c-1.137-1.44-1.9-3.122-2.511-4.863c-0.583-1.751-0.938-3.606-1.004-5.505   c-0.057-1.896,0.151-3.843,0.723-5.713c0.55-1.876,1.466-3.655,2.627-5.23l0.106-0.144l0.068-0.066   c1.152-1.112,2.271-1.963,3.531-2.778c1.252-0.786,2.579-1.475,3.999-1.965c1.411-0.495,2.917-0.81,4.43-0.784   c1.503,0.011,3.015,0.363,4.229,1.133c-1.434-0.031-2.748,0.196-3.975,0.614c-1.223,0.427-2.363,1.006-3.452,1.677   c-1.084,0.678-2.125,1.437-3.115,2.262c-0.5,0.406-0.987,0.83-1.456,1.27c-0.466,0.419-0.963,0.901-1.33,1.303l0.174-0.21   c-1.776,2.561-2.815,5.541-3.226,8.77c-0.21,1.613-0.281,3.282-0.237,4.988C8.474,45.498,8.641,47.227,8.863,49.028z"/>
</g>
<g>
	<path d="M20.741,38.59c-0.777-0.149-1.518-0.604-2.083-1.279c-0.565-0.676-0.92-1.599-0.987-2.533   c-0.076-0.938,0.106-1.855,0.395-2.681c0.299-0.826,0.712-1.567,1.174-2.244l-0.395,0.96c0.125-1.392,0.385-2.562,0.841-3.787   c0.443-1.203,1.064-2.371,1.916-3.408c0.841-1.034,1.932-1.941,3.201-2.456c1.261-0.52,2.657-0.619,3.856-0.208   c-2.202,1.277-3.281,2.827-4.132,4.597c-0.419,0.885-0.771,1.823-1.091,2.79c-0.298,0.949-0.609,2.021-0.8,2.91l-0.148,0.691   l-0.247,0.269c-0.831,0.905-1.542,1.804-1.921,2.778c-0.185,0.49-0.292,1.025-0.231,1.637C20.146,37.236,20.35,37.916,20.741,38.59   z"/>
</g>
<g>
	<path d="M75.812,36.07c0.09-1.657,0.128-3.274-0.063-4.805c-0.202-1.525-0.608-2.951-1.371-4.05   c-0.739-1.109-1.766-1.893-2.977-2.42c-0.608-0.255-1.254-0.46-1.925-0.594c-0.334-0.069-0.675-0.114-1.012-0.157   c-0.317-0.039-0.724-0.064-0.932-0.058l-0.93,0.028L65.96,23.19c-1.254-1.605-2.678-3.03-4.313-4.163   c-1.622-1.151-3.446-2.015-5.403-2.616c-1.957-0.601-4.047-0.943-6.199-1.067c-2.155-0.119-4.361-0.04-6.627,0.209   c1.956-1.212,4.184-1.948,6.481-2.382c2.302-0.424,4.72-0.491,7.117-0.077c2.393,0.406,4.751,1.311,6.833,2.661   c2.081,1.354,3.863,3.132,5.258,5.122l-1.573-0.796c0.604,0.022,1.004,0.082,1.489,0.159c0.465,0.075,0.92,0.188,1.372,0.317   c0.9,0.262,1.79,0.612,2.623,1.099c1.677,0.939,3.134,2.474,3.868,4.266c0.728,1.796,0.837,3.675,0.556,5.38   C77.183,33.017,76.59,34.608,75.812,36.07z"/>
</g>
<g>
	<path d="M76.173,30.312c1.734-0.658,3.639-0.533,5.407,0.066c1.769,0.613,3.421,1.819,4.554,3.42   c1.146,1.594,1.735,3.516,1.797,5.354c0.045,1.846-0.356,3.632-1.32,5.197c-0.697-1.697-1.186-3.216-1.766-4.588   c-0.573-1.371-1.205-2.567-1.968-3.642c-0.763-1.075-1.671-2.046-2.786-2.983C78.974,32.194,77.696,31.302,76.173,30.312z"/>
</g>
<g>
	<path d="M73.293,40.39c2.277-0.854,4.832-1.046,7.357-0.559c2.525,0.47,5.039,1.842,6.815,3.93   c1.796,2.074,2.805,4.662,3.305,7.191c0.489,2.55,0.522,5.095,0.29,7.566l-0.019,0.197l-0.022,0.086   c-0.241,0.955-0.531,1.7-0.862,2.513c-0.326,0.794-0.708,1.563-1.127,2.311c-0.835,1.495-1.862,2.896-3.075,4.124   c-1.237,1.199-2.628,2.271-4.201,2.95c-1.549,0.711-3.237,1.053-4.862,1.006c1.505-0.629,2.842-1.438,4.003-2.401   c1.142-0.989,2.144-2.081,2.946-3.323c0.83-1.215,1.506-2.531,2.079-3.89c0.285-0.68,0.533-1.376,0.766-2.072   c0.221-0.68,0.428-1.451,0.555-2.044l-0.041,0.282c0.072-2.25,0.042-4.479-0.324-6.593c-0.339-2.117-1.015-4.104-2.13-5.789   c-1.12-1.676-2.749-3.021-4.753-3.927C77.988,41.052,75.695,40.555,73.293,40.39z"/>
</g>
<g>
	<path d="M38.018,75.664c0.137,1.445,0.732,2.813,1.673,3.757c0.95,0.946,2.217,1.415,3.525,1.572l0.609,0.073l0.036,0.776   c0.05,1.094,0.354,2.296,0.824,3.261c0.482,0.981,1.197,1.745,2.076,2.189c1.762,0.909,4.132,0.711,6.373,0.089l0.611-0.17   l0.752,0.472c0.244,0.152,0.712,0.394,1.096,0.564c0.407,0.18,0.829,0.336,1.26,0.459c0.859,0.249,1.746,0.378,2.628,0.382   c1.768,0.008,3.503-0.492,5.123-1.335c1.62-0.854,3.105-2.075,4.441-3.481c1.333-1.413,2.578-2.969,3.69-4.642l0.34-0.511   l0.569-0.232c0.307-0.126,0.817-0.405,1.176-0.664c0.384-0.27,0.72-0.572,0.982-0.885c0.515-0.644,0.752-1.225,0.697-1.965   c-0.053-0.742-0.445-1.639-1.04-2.487c-0.589-0.86-1.365-1.667-2.175-2.467l-0.68-0.67l0.14-0.812   c0.286-1.66,0.296-3.621-0.068-5.322c-0.351-1.727-1.112-3.324-2.46-4.377c-1.324-1.081-3.179-1.596-5.089-1.687   c-1.921-0.119-3.903,0.133-5.875,0.475c1.834-0.806,3.774-1.429,5.839-1.673c2.039-0.22,4.32-0.042,6.305,1.162   c1.986,1.193,3.322,3.281,3.966,5.384c0.324,1.062,0.52,2.143,0.622,3.222c0.097,1.101,0.123,2.117,0.013,3.311l-0.539-1.481   c1.015,0.817,1.967,1.75,2.83,2.854c0.844,1.104,1.639,2.438,1.887,4.133c0.121,0.838,0.063,1.753-0.191,2.599   c-0.247,0.851-0.691,1.604-1.198,2.235c-0.511,0.632-1.088,1.153-1.692,1.598c-0.633,0.451-1.182,0.793-1.995,1.149l0.909-0.743   c-1.2,1.84-2.513,3.646-4.101,5.264c-1.586,1.611-3.406,3.083-5.531,4.159c-2.107,1.093-4.579,1.686-7.024,1.529   c-1.221-0.069-2.424-0.313-3.565-0.71c-0.572-0.196-1.128-0.435-1.669-0.709c-0.562-0.289-1.017-0.563-1.623-1.029l1.363,0.302   c-1.348,0.243-2.745,0.392-4.192,0.286c-1.432-0.103-2.968-0.469-4.261-1.364c-1.305-0.875-2.231-2.215-2.701-3.583   c-0.483-1.391-0.593-2.755-0.449-4.196l0.646,0.85c-1.518-0.396-3.016-1.259-3.901-2.585   C38.097,78.687,37.815,77.102,38.018,75.664z"/>
</g>
<g>
	<path d="M51.696,59.106c1.371-0.684,2.614-1.576,3.533-2.663c0.949-1.065,1.457-2.35,1.527-3.619l1.854-0.554   c0.003-0.023,0.166,0.079,0.238,0.077c0.09,0.017,0.156,0.005,0.219-0.017c0.115-0.041,0.294-0.153,0.505-0.389   c0.416-0.473,0.834-1.232,1.147-2.035c0.649-1.625,1.093-3.446,1.479-5.272l0.255-1.204l1.424-0.149   c3.095-0.325,6.613-1.494,8.044-3.59c0.73-1.048,0.975-2.253,0.82-3.838c-0.144-1.543-0.52-3.146-1.165-4.548   c-0.639-1.415-1.555-2.669-2.736-3.585c-1.18-0.921-2.638-1.479-4.241-1.646c-1.603-0.154-3.315,0.076-5.003,0.53   c-1.689,0.462-3.363,1.138-5.022,1.909c1.333-1.253,2.827-2.361,4.497-3.237c1.667-0.87,3.532-1.52,5.554-1.632   c2.008-0.148,4.174,0.324,5.987,1.448c1.829,1.102,3.247,2.763,4.229,4.569c0.98,1.83,1.554,3.775,1.801,5.821   c0.305,1.981-0.047,4.591-1.453,6.506c-1.384,1.939-3.362,3.09-5.272,3.784c-0.965,0.357-1.939,0.607-2.918,0.779   c-0.997,0.169-1.913,0.291-3.009,0.305l1.679-1.353c-0.567,1.924-1.22,3.843-2.242,5.719c-0.539,0.925-1.109,1.885-2.153,2.702   c-0.514,0.395-1.232,0.78-2.095,0.782c-0.422,0.001-0.844-0.101-1.199-0.272c-0.375-0.189-0.624-0.358-0.96-0.729l1.854-0.554   c-0.379,1.754-1.499,3.241-2.807,4.207c-0.667,0.483-1.38,0.86-2.112,1.155C53.219,58.796,52.464,59.014,51.696,59.106z"/>
</g>
<g>
	<path d="M34.419,31.031c-0.379-2.128-0.056-4.277,0.713-6.312c0.788-2.016,2.144-3.992,4.194-5.324   c1.021-0.654,2.195-1.119,3.4-1.314c1.205-0.189,2.42-0.136,3.532,0.143c2.234,0.553,4.086,1.785,5.437,3.449   c-2.135-0.201-4.046-0.45-5.767-0.321c-1.723,0.111-3.145,0.578-4.438,1.406c-1.293,0.832-2.486,2.052-3.62,3.486   C36.729,27.682,35.652,29.289,34.419,31.031z"/>
</g>
<path d="M92.05,78.104c0,0,6.84-4.679,6.119-11.519c0,0-6.479,5.04-7.559,0.361c0,0-7.198,8.278-9.719,5.758  c0,0,4.318,5.76-2.52,8.999C78.372,81.703,81.611,79.544,92.05,78.104z"/>
<path d="M62.357,96.032c0,0,22.889-16.906,24.035-14.78C86.393,81.252,81.764,94.717,62.357,96.032z"/>
<path d="M17.502,23.472c0,0,0.36-4.318,8.998-2.519c0,0,30.595-8.639,32.395-11.519c0,0-1.8-4.679-6.479-1.079  c0,0-2.879,2.88-12.958,5.399l-17.997,4.679C21.461,18.434,18.942,18.793,17.502,23.472z"/>
<path d="M56.085,39.438c-0.462-5.776-2.074-11.771-3.38-17.418c-3.246,1.452-6.485,2.922-9.597,4.648  c-12.524,6.946-23.304,17.2-31.937,28.562c-0.535,0.704-1.761,1.886-1.948,2.797c-0.59,2.866-0.534,6.739,0.673,9.442  c1.422,3.183,4.192,5.924,7.547,7.932c0.027,0.017,0.056,0.031,0.083,0.048c0.19-2.585,1.138-5.607,2.617-8.879  c-1.194-2.027-3.861-7.636-1.281-13.942c0,0-1.264,9.482,2.131,12.156c1.196-2.414,2.634-4.932,4.237-7.486  c-1.17-1.959-3.943-7.64-1.33-14.029c0,0-1.326,9.967,2.403,12.343c1.486-2.285,3.081-4.583,4.723-6.841  c-0.755-1.327-2.236-4.654-0.711-8.381c0,0-0.785,5.923,1.386,7.465c1.412-1.918,2.847-3.802,4.272-5.619  c-0.56-1.041-1.474-3.333-0.43-5.885c0,0-0.541,4.077,0.896,5.297c7.894-9.996,15.256-17.814,15.256-17.814l-11,18.139  c1.807,0.408,4.843-1.926,4.843-1.926c-1.652,2.136-4.026,2.521-5.234,2.569l-4.29,7.075c2.294,1.637,7.478-2.354,7.478-2.354  c-2.909,3.761-7.429,3.618-8.211,3.563l-3.479,5.737c4.025,1.685,11.6-4.501,11.6-4.501c-4.095,5.622-10.455,6.214-12.692,6.238  c-1.953,2.988-3.285,6.423-4.498,9.754c4.166,1.147,11.056-5.479,11.056-5.479c-3.459,5.654-9.321,6.915-11.794,7.198  c-0.983,2.104-2.274,4.563-2.159,6.502c0.063,1.053,0.667,1.742,1.5,2.197c2.498,0.639,5.073,0.839,7.489,0.289  c4.962-1.129,6.884-5.339,9.446-9.231c2.967-4.509,7.806-7.471,10.488-12.19C55.314,52.001,56.58,45.628,56.085,39.438z"/>
</svg>